<?xml version="1.0" encoding="UTF-8"?>
<svg width="27px" height="40px" viewBox="0 0 27 40" version="1.1" xmlns="http://www.w3.org/2000/svg" xmlns:xlink="http://www.w3.org/1999/xlink">
    <!-- Generator: Sketch 52.4 (67378) - http://www.bohemiancoding.com/sketch -->
    <title>001-idea copy</title>
    <desc>Created with Sketch.</desc>
    <defs>
        <linearGradient x1="0%" y1="0%" x2="97.4516747%" y2="100%" id="linearGradient-1">
            <stop stop-color="#0086C1" offset="0%"></stop>
            <stop stop-color="#712B90" offset="49.4332551%"></stop>
            <stop stop-color="#B01252" offset="100%"></stop>
        </linearGradient>
    </defs>
    <g id="Set-1" stroke="none" stroke-width="1" fill="none" fill-rule="evenodd">
        <g id="Icons" transform="translate(-324.000000, -131.000000)" fill="url(#linearGradient-1)" fill-rule="nonzero">
            <g id="001-idea-copy" transform="translate(324.000000, 131.000000)">
                <path d="M13.3501671,3.12515625 C12.9166232,3.12515625 12.5647615,3.47515625 12.5647615,3.90640625 C12.5647615,4.33765625 12.9166232,4.68765625 13.3501671,4.68765625 C13.7837109,4.68765625 14.1355726,4.33765625 14.1355726,3.90640625 C14.1355726,3.47515625 13.7837109,3.12515625 13.3501671,3.12515625 Z" id="Shape"></path>
                <path d="M11.8224747,0.085546875 C5.95871509,0.737421875 1.08464511,5.34828125 0.16729139,11.1460156 C-0.536981799,15.60125 1.03257272,20.0639062 4.36567694,23.0839063 C5.58321268,24.1869531 6.28159533,25.7396094 6.28159533,27.3438281 L6.28159533,32.9688281 C6.28159533,34.8785938 7.6668937,36.4715625 9.49021277,36.8084375 C9.82872257,38.6220312 11.4301646,40 13.3501671,40 C15.3074763,40 16.8813506,38.5901562 17.2110638,36.8082031 C19.0339902,36.4710156 20.4188173,34.8782813 20.4188173,32.96875 L20.4188173,27.34375 C20.4188173,27.3435938 20.4188173,27.3435156 20.4188173,27.3433594 C20.4188173,27.3432031 20.4188173,27.343125 20.4188173,27.3429688 C20.4188173,25.7345312 21.1089532,24.1892969 22.312116,23.1038281 C25.1019552,20.5883594 26.702062,17.0082031 26.702062,13.2813281 C26.7019835,5.50109375 19.9059475,-0.813671875 11.8224747,0.085546875 Z M13.3501671,38.4375 C12.3261553,38.4375 11.4527057,37.7766406 11.1284903,36.8671875 L15.5727078,36.8671875 C15.256425,37.7583594 14.3944423,38.4375 13.3501671,38.4375 Z M18.8480062,30.15625 L16.4917894,30.15625 C16.0580099,30.15625 15.7063838,30.5060156 15.7063838,30.9375 C15.7063838,31.3689844 16.0580099,31.71875 16.4917894,31.71875 L18.8480062,31.71875 L18.8480062,32.96875 C18.8480062,34.2610938 17.7910073,35.3125 16.4917894,35.3125 L10.2085447,35.3125 C8.9093268,35.3125 7.85232796,34.2610938 7.85232796,32.96875 L7.85232796,31.71875 L10.2085447,31.71875 C10.6423242,31.71875 10.9939503,31.3689844 10.9939503,30.9375 C10.9939503,30.5060156 10.6423242,30.15625 10.2085447,30.15625 L7.85232796,30.15625 L7.85232796,28.125 L18.8480062,28.125 L18.8479276,30.15625 L18.8480062,30.15625 Z M21.2570022,21.9464063 C19.9217341,23.1510938 19.0833922,24.8014063 18.8908108,26.5625781 L7.80897357,26.5625781 C7.61435007,24.8042969 6.76909658,23.1478906 5.42338265,21.92875 C2.48188165,19.2635938 1.09705452,15.3233594 1.7190172,11.3888281 C2.52240858,6.31179688 6.84496676,2.21109375 11.9969918,1.63828125 C19.225315,0.834609375 25.1311723,6.5009375 25.1311723,13.2813281 C25.1311723,16.568125 23.7190916,19.7263281 21.2570022,21.9464063 Z" id="Shape"></path>
                <path d="M16.7077759,3.68429688 C16.298344,3.54234375 15.8504272,3.7575 15.7076405,4.16492188 C15.5649323,4.57234375 15.781233,5.01773437 16.190822,5.15976563 C19.5598978,6.32789062 21.98955,9.55601562 21.98955,13.2813281 C21.98955,13.7128125 22.341176,14.0625781 22.7749555,14.0625781 C23.208735,14.0625781 23.5603611,13.7128125 23.5603611,13.2813281 C23.5602826,8.8765625 20.6934737,5.06609375 16.7077759,3.68429688 Z" id="Shape"></path>
                <path d="M13.7175012,14.2090625 C12.5467757,13.5935156 11.7793559,13.1458594 11.7793559,12.5555469 C11.7793559,11.6939844 12.4840218,10.9930469 13.3501671,10.9930469 C14.2163123,10.9930469 14.9209782,11.6939844 14.9209782,12.5555469 C14.9209782,12.9870313 15.2726043,13.3367969 15.7063838,13.3367969 C16.1401633,13.3367969 16.4917894,12.9870313 16.4917894,12.5555469 C16.4917894,11.1021094 15.4890621,9.87726562 14.1355726,9.52945312 L14.1355726,8.64929687 C14.1355726,8.2178125 13.7839466,7.86804687 13.3501671,7.86804687 C12.9163875,7.86804687 12.5647615,8.2178125 12.5647615,8.64929687 L12.5647615,9.52945312 C11.211272,9.87726562 10.2085447,11.1021094 10.2085447,12.5555469 C10.2085447,14.1314062 11.682751,14.9065625 12.9834612,15.5904688 C14.153794,16.2058594 14.9209782,16.6532813 14.9209782,17.2430469 C14.9209782,18.1046094 14.2162338,18.8055469 13.3501671,18.8055469 C12.4840218,18.8055469 11.7793559,18.1046094 11.7793559,17.2430469 C11.7793559,16.8115625 11.4277298,16.4617969 10.9939503,16.4617969 C10.5601708,16.4617969 10.2085447,16.8115625 10.2085447,17.2430469 C10.2085447,18.6964844 11.211272,19.9213281 12.5647615,20.2691406 L12.5647615,21.1492969 C12.5647615,21.5807813 12.9163875,21.9305469 13.3501671,21.9305469 C13.7839466,21.9305469 14.1355726,21.5807813 14.1355726,21.1492969 L14.1355726,20.2691406 C15.4890621,19.9213281 16.4917894,18.6964844 16.4917894,17.2430469 C16.4917894,15.6677344 15.0178973,14.8928125 13.7175012,14.2090625 Z" id="Shape"></path>
            </g>
        </g>
    </g>
</svg>