<svg xmlns="http://www.w3.org/2000/svg" xmlns:xlink="http://www.w3.org/1999/xlink" width="146" height="49" viewBox="0 0 146 49"><defs><path id="kxvia" d="M299.9 50.1h10.64v3.39h-7.24v4.43h5.46v3h-5.46v2.58h7.77v3.42H299.9z"/><path id="kxvib" d="M221.91 50.1h3.49l5.41 9.9v-9.9h3.4v16.7l-.24.12h-3.28L225.3 57v9.94h-3.39z"/><path id="kxvic" d="M251.8 62.791a5 5 0 0 0 1.83-1.79 4.86 4.86 0 0 0 .67-2.5 4.79 4.79 0 0 0-.67-2.49 5 5 0 0 0-1.83-1.82 5.06 5.06 0 0 0-5 0 5 5 0 0 0-1.86 1.81 5 5 0 0 0 0 5 5.07 5.07 0 0 0 1.83 1.82 5.06 5.06 0 0 0 5 0zm-6.73 3a8.52 8.52 0 0 1-3.07-3.07 8.26 8.26 0 0 1-1.13-4.22 8.17 8.17 0 0 1 1.13-4.21 8.42 8.42 0 0 1 3.07-3.06 8.41 8.41 0 1 1 0 14.56z"/><path id="kxvid" d="M271.05 63.481h-3.32v-3h3.66c.72.05 1.08.52 1.08 1.52s-.47 1.53-1.42 1.48zm-3.37-9.97h2c.85 0 1.39.16 1.62.49a2 2 0 0 1 .31 1.27c.046.49-.05.984-.28 1.42a1.29 1.29 0 0 1-1 .43h-2.6zm6.69 4.74a6.05 6.05 0 0 0 .7-3 5.29 5.29 0 0 0-.67-2.67 4.68 4.68 0 0 0-1.89-1.8 6.08 6.08 0 0 0-2.83-.63h-5.32v16.76h6.69a4.9 4.9 0 0 0 2.49-.63 4.34 4.34 0 0 0 1.71-1.74 5.19 5.19 0 0 0 .61-2.54 4.82 4.82 0 0 0-1.49-3.75z"/><path id="kxvie" d="M282.53 50.1h3.39v13.4h7.32v3.42h-10.71z"/><path id="kxvif" d="M229.91 72.53h3.37v7.15a16.9 16.9 0 0 1-3.37.53zm-8 0h3.39v8.16l2.41.05a26.28 26.28 0 0 0 4.29-.29 25.38 25.38 0 0 0 3.69-1l1 2.92c-1.51.44-2.61.73-3.32.86v6.09h-3.45v-5.6c-.62.05-1.32.07-2.09.07-.92 0-1.76 0-2.53-.07v5.63h-3.39z"/><path id="kxvig" d="M251.8 85.221a5 5 0 0 0 1.83-1.83 4.86 4.86 0 0 0 .67-2.5 4.79 4.79 0 0 0-.67-2.49 5.07 5.07 0 0 0-1.83-1.82 5.06 5.06 0 0 0-5 0 5.07 5.07 0 0 0-1.83 1.82 5 5 0 0 0 0 5 5 5 0 0 0 1.83 1.82 5.06 5.06 0 0 0 5 0zm-6.73 3a8.45 8.45 0 0 1-3.07-3.07 8.26 8.26 0 0 1-1.13-4.22 8.17 8.17 0 0 1 1.13-4.21 8.42 8.42 0 0 1 3.07-3.06 8.41 8.41 0 1 1 0 14.56z"/><path id="kxvih" d="M264.55 87.63a7.35 7.35 0 0 1-1.55-5.09v-10h3.39v10a6.83 6.83 0 0 0 .25 2.07c.14.433.446.792.85 1a3.79 3.79 0 0 0 1.69.3 2.48 2.48 0 0 0 2.05-.75 4.38 4.38 0 0 0 .6-2.64v-10h3.42v10a7.33 7.33 0 0 1-1.57 5 5.68 5.68 0 0 1-4.5 1.77 5.94 5.94 0 0 1-4.63-1.66z"/><path id="kxvii" d="M283.67 88.39a6.14 6.14 0 0 1-2.49-2.72l3-1.61a3.09 3.09 0 0 0 1.26 1.42 4.25 4.25 0 0 0 2.08.45 4.33 4.33 0 0 0 1.89-.42c.404-.17.67-.561.68-1a1.32 1.32 0 0 0-.14-.57 1.23 1.23 0 0 0-.66-.58 8.44 8.44 0 0 0-1.67-.39c-.81-.14-1.46-.28-2-.42a5.26 5.26 0 0 1-1.51-.66 4.6 4.6 0 0 1-1.69-1.73 4.79 4.79 0 0 1-.6-2.36c.01-.336.05-.67.12-1a4.88 4.88 0 0 1 1.61-2.8 6.32 6.32 0 0 1 3.18-1.46c.58-.06.99-.09 1.23-.09a6.7 6.7 0 0 1 3.58 1 7.36 7.36 0 0 1 2.6 2.83l-3 1.69a3.37 3.37 0 0 0-3.14-2.14 4.29 4.29 0 0 0-.79.07 2.68 2.68 0 0 0-1.34.54 1.51 1.51 0 0 0-.59 1 1.83 1.83 0 0 0 0 .46A1.12 1.12 0 0 0 286 79a8.36 8.36 0 0 0 2.18.58c.753.116 1.498.28 2.23.49a4.83 4.83 0 0 1 1.72 1 3.87 3.87 0 0 1 1.13 2c.114.465.17.942.17 1.42a4.22 4.22 0 0 1-.92 2.74 4.78 4.78 0 0 1-2 1.52 8.09 8.09 0 0 1-2.93.55 7.55 7.55 0 0 1-3.91-.91z"/><path id="kxvij" d="M300.07 72.53h10.64v3.39h-7.25v4.43h5.47v3h-5.47v2.55h7.78v3.42h-11.17z"/><path id="kxvik" d="M180.641 76.41a.92.92 0 0 0 .11.14c-.11.258-.207.522-.29.79-.12.39-.217.788-.29 1.19-.08.41-.14.79-.19 1.14-.05.35-.06.57 0 .64.05-.2.11-.41.17-.62l.18-.62a1.8 1.8 0 0 0 .09-.45c.02-.15.054-.297.1-.44 0-.21.11-.41.17-.6.07-.2.13-.404.18-.61a.53.53 0 0 1 .21-.31c.09 0 .2 0 .33.08.063.047.13.087.2.12a1.45 1.45 0 0 0 0-.35c0-.11-.1-.18-.26-.24a.81.81 0 0 1-.27-.11l-.25-.16a2 2 0 0 0-.31.27z"/><path id="kxvim" d="M182.93 68.7s.06-.09.12-.2c-.21 0-.33 0-.37.06a1.42 1.42 0 0 0-.1.29l.08.2a1.18 1.18 0 0 0 .13-.18 1.15 1.15 0 0 1 .14-.17z"/><path id="kxvio" d="M187.53 62.186c-.125.218-.318.389-.55.484a1.49 1.49 0 0 1 .23-.706.943.943 0 0 1 .51-.464.871.871 0 0 1-.24.696zm-.31 1.064c-.312.467-.587.959-.82 1.47-.23.52-.46 1-.7 1.56a.59.59 0 0 1-.13.17l-.18.18c.13.15.11.33-.07.54a3.06 3.06 0 0 0-.47.7l-.39.78a1.75 1.75 0 0 0-.23.5c0 .18-.11.38-.16.59a.61.61 0 0 1 .22-.2l.25-.15a.36.36 0 0 0 .15-.2.56.56 0 0 0 0-.35.26.26 0 0 1 .07-.25 1.37 1.37 0 0 0 .2-.29 2.36 2.36 0 0 1 .23-.35c.085-.11.162-.228.23-.35l.31-.53c.117-.18.224-.367.32-.56a.21.21 0 0 0 .07-.16.7.7 0 0 1 .22-.69c.19-.182.363-.38.52-.59a.59.59 0 0 0 0 .14.51.51 0 0 1 0 .09c-.13.29-.27.59-.43.9-.16.31-.3.61-.42.89a3.77 3.77 0 0 0-.26.66 5.13 5.13 0 0 1-.21.66 8.854 8.854 0 0 1-.43 1c-.15.33-.3.67-.43 1-.127.28-.238.568-.33.86-.093.29-.203.575-.33.85a5 5 0 0 0-.43 1.191c-.08.38-.19.76-.3 1.15.11-.21.23-.42.35-.63.12-.21.26-.45.39-.66a.68.68 0 0 1-.1.72 1.49 1.49 0 0 0-.33.72l-.2-.06h-.13a2.7 2.7 0 0 0-.41.55l-.16-.08a.77.77 0 0 0 0-.37c0-.12-.14-.15-.35-.1-.21.05-.16 0-.16.08-.1.21-.2.43-.29.66-.09.23-.19.47-.29.7h.66c-.23.36-.45.7-.64 1-.19.3-.4.62-.6.9a.92.92 0 0 0-.18.39.84.84 0 0 0 .18.46c.044-.08.08-.163.11-.25l.12-.21h.06a.08.08 0 0 0 .06 0c.028.062.052.126.07.19.03.06.03.131 0 .19a.81.81 0 0 1-.11.271 1 1 0 0 0-.12.23 1.15 1.15 0 0 0 0 .31.32.32 0 0 0 .08.23.83.83 0 0 1 .23.39c0 .08-.1.23-.31.46v-.73l-.15.23c-.06.07-.12.16-.2.27l-.12-.33-.12-.37-.16.35a2.84 2.84 0 0 0-.16.35.75.75 0 0 1 .45 0 .19.19 0 0 1 .08.21 1.42 1.42 0 0 1-.08.31c-.011.1-.011.2 0 .3h.11a1.45 1.45 0 0 0 .16-.18l.15-.17a2.292 2.292 0 0 0 0 .25c.01.083.01.167 0 .25a.76.76 0 0 1-.15.39 1.51 1.51 0 0 1-.31.31.73.73 0 0 0-.26.47c-.041.212-.102.42-.18.62l-.41.12c.23.07.36.17.37.27a.74.74 0 0 1-.1.39.82.82 0 0 0-.15.33c0 .11-.07.24-.12.37a1 1 0 0 1-.19.23.51.51 0 0 1-.08-.27c.02-.255.06-.51.12-.76a2.42 2.42 0 0 0 0-.76 2.37 2.37 0 0 1 .08-1 2.05 2.05 0 0 0 .06-1.21 2.51 2.51 0 0 1-.47-.19.74.74 0 0 1 .26.64c0 .22-.08.43-.1.64a1.77 1.77 0 0 1-.06.43c-.035.147-.081.291-.14.43a.58.58 0 0 1-.15.19.71.71 0 0 0-.1-.14.11.11 0 0 1 0-.13.84.84 0 0 0 .06-.37.62.62 0 0 0-.21-.37.34.34 0 0 1-.08-.27v-.35h.13c.06.21.09.37.12.5.05-.2.1-.41.14-.6.04-.19.08-.39.13-.6.05-.21.11-.57.16-.86l.15-.85c.06-.39.12-.78.2-1.17.08-.39.14-.78.19-1.16v-.16a.33.33 0 0 1-.15.1.44.44 0 0 0-.16.06l-.092-.093c-.084.396-.162.795-.248 1.172 0 .1 0 .21-.06.31s0 .22 0 .35c-.05.34-.11.67-.18 1-.07.33-.12.68-.17 1a.15.15 0 0 0 0 .12l.08.12.11.06h.08s0 .11-.08.16 0 .08-.08.08-.27 0-.29.13a2 2 0 0 1-.06.3c0 .67 0 1.33-.07 2-.07.67 0 1.31 0 2a4.33 4.33 0 0 0 .28 1.73c.207.402.434.792.68 1.17.257.373.6.679 1 .89.134.05.258.121.37.21a2 2 0 0 0 .37.22c.57.18.95.07 1.13-.31a.62.62 0 0 0-.18 0 .19.19 0 0 1-.17-.06l-.35-.22a.57.57 0 0 1-.23-.29 2.86 2.86 0 0 1-.16-.64 5.72 5.72 0 0 0-.12-.68 2.28 2.28 0 0 1-.11-.66 1 1 0 0 1 .08-.35c0-.18.1-.36.15-.52.05-.16.1-.35.16-.53a2.57 2.57 0 0 0 0-.74.91.91 0 0 1 .15-.66 1.41 1.41 0 0 0 .2-.7 2.84 2.84 0 0 1 .07-.66 13 13 0 0 0 .33-2c.011-.1.024-.202.039-.303l-.249.422a.221.221 0 0 0-.11-.121c-.06 0-.07 0 0-.08l.08-.173a.912.912 0 0 1 .11-.222.709.709 0 0 0 .178.112 8.11 8.11 0 0 1 .36-1.436l-.188.013-.35.162v-.04c0-.314-.1-.435-.39-.354h-.15a.149.149 0 0 1-.12 0 .782.782 0 0 1-.1-.252.936.936 0 0 0-.06-.253h.12c.02.042.046.08.08.111l.08.121c.116-.044.227-.102.33-.171.089-.073.186-.134.29-.182l.08.121a.336.336 0 0 0 0 .172.54.54 0 0 1 0 .181l.29.172c.042.03.085.057.13.083v-.003c.047-.1.1-.196.16-.29l.22-.26-.15-.18-.16-.18a1.32 1.32 0 0 0 .35-.23.46.46 0 0 0 .1-.18.34.34 0 0 1 .09-.18l-.38-.27v-.06-.06c.44.16.68 0 .7-.39a.57.57 0 0 0-.07-.35c-.11-.18-.06-.33.14-.46a.37.37 0 0 0 .24-.51.28.28 0 0 1 0-.13.64.64 0 0 0 .08-.14c.11-.21.22-.42.35-.64a1 1 0 0 0 .16-.64 1.19 1.19 0 0 1 0-.6.68.68 0 0 1 .39-.37v-.08l-.22-.23-.17-.2.35-.06a.37.37 0 0 0 .23-.09 2 2 0 0 0 .24-.49l.15-.52c-.1-.06-.23-.13-.39-.24a.09.09 0 0 0 0-.08h.25c.11.012.22.012.33 0a.43.43 0 0 1 0-.35c.047-.1.1-.196.16-.29.053-.099.096-.203.13-.31a.37.37 0 0 0-.1-.37.14.14 0 0 1 .06-.09.71.71 0 0 0 .1-.14l.12-.2c-.06-.2 0-.31.07-.33h.35a.55.55 0 0 0 0-.19.57.57 0 0 1 0-.12c.047-.1.097-.19.15-.27a.77.77 0 0 1 .16-.19l.07-.27a.58.58 0 0 0 .39-.37c0-.17.11-.32.16-.45l.08-.23v-.08l.29-.19a3.82 3.82 0 0 1 .37-.53l.64-.78c.23-.27.45-.53.64-.77a3.08 3.08 0 0 0 .37-.53l.78-1.24.35-.35v-.08c.07-.21.17-.44.27-.7a2.91 2.91 0 0 1 .35-.66.76.76 0 0 0 0-.27.88.88 0 0 0-.19-.74 2 2 0 0 1-.45-.64h-.08a.88.88 0 0 1-.52-.29l-.37-.45a1.33 1.33 0 0 0-.84-.46l-1-.2c-.26-.1-.45-.09-.58 0l-.45.39a1.33 1.33 0 0 0-.33.47 1 1 0 0 1-.31.58l-.12.11-.11.16a.55.55 0 0 0-.14.21l-.14.3v.08l-.06.08v.08l-.39.31a2.32 2.32 0 0 0-.35.35c-.28.34-.62.628-1 .85l-.08.06s0 .05-.08.1a4.81 4.81 0 0 1-.35.72 1.7 1.7 0 0 1-.54.56 3 3 0 0 1-.47.27.57.57 0 0 0-.12.22.42.42 0 0 1-.11.21l-.39.39a2.5 2.5 0 0 1-.47.35 1 1 0 0 0-.33.33 4 4 0 0 1-.29.39 1.64 1.64 0 0 1-.35.29.79.79 0 0 1-.5.08v.08c-.126.15-.243.307-.35.47a2.86 2.86 0 0 1-.35.43l-.72.7c-.25.23-.49.48-.72.73l-1.14 1.46-1.15 1.46a.34.34 0 0 1-.19.15l-.24.12a.21.21 0 0 1-.15-.15l.21-.49a1.63 1.63 0 0 1 .25-.45 8.27 8.27 0 0 1 .51-.66c.172-.192.326-.4.46-.62a3.32 3.32 0 0 0 .41-.68c.12-.25.25-.51.41-.8-.16.06-.22.08-.19.08-.44.55-.87 1.11-1.29 1.69a16.448 16.448 0 0 1-1.32 1.65.91.91 0 0 0-.15.35 2.91 2.91 0 0 1-.12.39l-.21.1a.62.62 0 0 0-.22.17l-.62.9c-.21.31-.43.61-.66.89a3.62 3.62 0 0 0-.39.7 2.13 2.13 0 0 1-.46.7 2.91 2.91 0 0 0-.53.72c-.14.27-.29.54-.44.8h-.12a.77.77 0 0 0 0-.15.78.78 0 0 1 0-.16c0-.05.05-.11.08-.17a.71.71 0 0 1 .11-.21l.39-.78c.13-.26.26-.53.39-.82l.08-.15c.13-.34.24-.68.35-1a1.26 1.26 0 0 1 .74-.78.7.7 0 0 1-.14-.62.9.9 0 0 1 .25-.59l.63-.54a1 1 0 0 0 .31-.78.13.13 0 0 1 0-.11l.14-.12.31-.31a6 6 0 0 0 .35-.72 2 2 0 0 1 .47-.68 4.79 4.79 0 0 0 .66-.91c.18-.33.37-.64.58-.95.21-.31.4-.62.58-.92.182-.3.379-.59.59-.87.1-.18.2-.36.31-.53a2 2 0 0 0 .23-.56.82.82 0 0 0-.06-.47 2.27 2.27 0 0 0-.27-.54 2.63 2.63 0 0 0-.39-.47.9.9 0 0 0-.41-.23 2.49 2.49 0 0 1-.56-.21.56.56 0 0 0-.56 0 .53.53 0 0 1-.39 0 2.82 2.82 0 0 0-.51-.16.63.63 0 0 1 .61-.27c.17.05.35.05.52 0a.69.69 0 0 0-.58-.29 2.34 2.34 0 0 0-.66.13c-.31.11-.47 0-.47-.39a.76.76 0 0 0-.66 0 1.16 1.16 0 0 0-.43.47c-.33.55-.66 1.1-1 1.66-.34.56-.61 1.12-.89 1.69-.28.57-.72 1.36-1.05 2-.33.64-.68 1.37-1 2-.26.52-.51 1-.76 1.57-.25.57-.47 1.07-.68 1.62-.21.55-.5 1.37-.72 2.08l-.64 2.12a7 7 0 0 0-.23 1.09c-.06.34-.12.67-.2 1a5 5 0 0 0-.15 1v1.62a3.42 3.42 0 0 0 .44 1.57c.05.158.132.305.24.43a4.1 4.1 0 0 0 .35.39c.203.233.461.411.75.52.306.124.6.275.88.45a.58.58 0 0 0 .48.08 1.18 1.18 0 0 0 .37-.2 3.73 3.73 0 0 1 .7-.54 1.46 1.46 0 0 0 .59-.7c.1-.23.22-.45.36-.66.148-.212.285-.433.41-.66.26-.52.51-1 .74-1.54a15.27 15.27 0 0 1 .78-1.5c.18-.34.37-.65.56-.95.19-.3.38-.61.56-.92a4.19 4.19 0 0 0 .26-.52 2.52 2.52 0 0 1 .25-.49 6.26 6.26 0 0 1 .43-.62c.15-.21.3-.42.43-.63l.69-1c.24-.34.46-.67.66-1l.35-.7a.64.64 0 0 0 .12-.25 1 1 0 0 1 .12-.26c.2-.28.42-.57.64-.85l.64-.86c.085-.097.162-.2.23-.31a5.86 5.86 0 0 0 .57-.66 7.15 7.15 0 0 1 .56-.7l.39-.61a5.57 5.57 0 0 1 .43-.56c.38-.39.78-.77 1.18-1.15l1.23-1.15c.44-.44.91-.88 1.43-1.32 0-.06.06-.08.1-.08a.3.3 0 0 0 .14 0c-.16.29-.31.57-.45.86-.14.29-.28.57-.41.85-.21.413-.396.837-.56 1.27-.17.43-.35.86-.53 1.3-.18.44-.39.87-.56 1.29-.17.42-.36.84-.57 1.28l-.37 1c-.11.31-.23.63-.33 1-.18.54-.36 1.09-.52 1.63-.16.54-.34 1.09-.49 1.64a.12.12 0 0 0 0 .15.29.29 0 0 0 .13.12.37.37 0 0 1 .12.59.15.15 0 0 1-.1.09.76.76 0 0 0-.13.1 1 1 0 0 0 0-.16.77.77 0 0 1 .08-.42h-.16a2.858 2.858 0 0 0-.12.27c0 .08 0 .17-.07.27a19.298 19.298 0 0 0-.365 1.476c.093-.114.18-.235.275-.356.11-.14.2-.28.31-.41.11-.13.16-.24.24-.35a1.33 1.33 0 0 0 .2-.35c.102-.23.188-.468.26-.71.06-.25.14-.5.22-.76.08-.26.09-.32.14-.49.031-.163.075-.323.13-.48l.18-.47a1.67 1.67 0 0 0 .14-.51l-.11.12c-.06 0-.11.11-.18.16l-.21.15c-.08-.08-.12-.14-.12-.19a1.3 1.3 0 0 1 .35-.51 1 1 0 0 1 .27-.23l.36-.14a1.74 1.74 0 0 0-.22-.19c-.07 0-.12-.11-.18-.16l.22-.06.3-.05a.78.78 0 0 0-.32-.08.9.9 0 0 0-.31 0 .8.8 0 0 1 .15-.32c.152-.104.312-.195.48-.27.055.085.123.163.2.23.113-.26.193-.44.24-.54-.447-.214-.607-.474-.48-.78a1.15 1.15 0 0 1 .4-.57.85.85 0 0 1 .64.1c.008-.16.008-.32 0-.48a4.422 4.422 0 0 1 0-.49h.26a.62.62 0 0 0 .11-.47.47.47 0 0 1 .26-.46.51.51 0 0 0 .27-.331 1.61 1.61 0 0 1 .24-.45.28.28 0 0 0 .2.08c-.1.188-.19.382-.27.58-.08.18-.16.38-.26.58a1.481 1.481 0 0 1-.09.27.74.74 0 0 0-.13.31 3.131 3.131 0 0 1-.31 1c-.15.31-.32.63-.5 1a2.1 2.1 0 0 0-.24.56c-.05.205-.113.405-.19.6-.11.29-.21.55-.31.78-.1.23-.21.48-.31.74a.47.47 0 0 0-.06.331.61.61 0 0 1-.06.33l-.23.45a2.1 2.1 0 0 0-.2.48c-.05.18-.08.364-.09.55a3.412 3.412 0 0 1-.1.54c-.053.237-.12.471-.2.7-.07.23-.15.45-.23.66.21 0 .35 0 .43-.31.08-.31.11-.56.17-.82.06-.26.14-.51.22-.77.08-.26.27-.73.42-1.09.15-.36.3-.73.43-1.09l.39-1.09.39-1.08a2.37 2.37 0 0 1 .15-.28 1.13 1.13 0 0 0 .16-.27c.12-.28.24-.58.36-.89a24.452 24.452 0 0 1 .81-1.81c.15-.3.3-.591.43-.871s.35-.68.5-1c.15-.32.33-.68.51-1 .08-.13.15-.26.23-.37a1.37 1.37 0 0 1 .31-.33.19.19 0 0 1 .2-.06h.23s0 .08.06.17a.28.28 0 0 1-.07.19zm-7.56 13.192l.045-.055-.017.082zm5.81-6.189s-.06 0-.1-.121c-.04-.121 0-.111 0-.111.118-.13.249-.249.39-.354l.06.071a.224.224 0 0 0 0 .08c-.02.334-.15.475-.4.475zm-2.68 5.458a6.029 6.029 0 0 0-.15.454h-.12s-.15 0-.15-.11a.519.519 0 0 1 .09-.475c.117-.181.29-.32.49-.394a4.062 4.062 0 0 1-.21.565zm-.82 1.527a.54.54 0 0 1 .43-.273c.15 0 .28.111.38.313.1.202.06.131 0 .243a.178.178 0 0 0-.09 0 .119.119 0 0 1-.1 0c-.094-.054-.19-.101-.29-.142zm1.05 1.415l-.243.017.042-.116c.065.037.132.07.201.099zm-.58 1.462l-.031.053.01-.062a.678.678 0 0 0 .021.01zm2.62-15.963a.511.511 0 0 1 .33-.273.26.26 0 0 1 .12.07l-.32.708c-.07.08-.14.09-.19 0-.05-.091-.12 0-.12-.152.035-.106.075-.21.12-.313zM174 73.157c-.133.196-.263.4-.39.609-.053.047-.143.047-.27 0l-.06-.081a.761.761 0 0 1 0-.122l.47-.589c.16-.182.32-.365.51-.547h.07l.08.06z"/><path id="kxviq" d="M184.06 70.83l.09-.4c.037-.166.084-.33.14-.49-.34.31-.51.5-.52.58-.01.08.08.18.29.31z"/><path id="kxvis" d="M183.23 74.6a.639.639 0 0 0 0-.07v.07z"/><path id="kxviu" d="M183.398 72.23a3 3 0 0 0-.76 1.25 1.08 1.08 0 0 0 .13 1 2.7 2.7 0 0 0 .12-.47 1.8 1.8 0 0 1 .12-.43 1.33 1.33 0 0 0 .09-.37.58.58 0 0 1 .22-.33c.18-.1.27-.22.27-.35a.37.37 0 0 0-.19-.3z"/><path id="kxviw" d="M205.498 75.205a1.796 1.796 0 0 0-.212.37h-.364c-.11-.01-.222-.01-.333 0a1.37 1.37 0 0 1 .243-.88c.154-.328.418-.592.747-.75a4.25 4.25 0 0 0-.273.63 3.98 3.98 0 0 1-.262.63zm-.689 1.55a1.22 1.22 0 0 0-.1.23.46.46 0 0 0-.18-.13.31.31 0 0 1-.16-.12 2.783 2.783 0 0 1-.19.27c-.08.087-.16.187-.24.3h-.13a.19.19 0 0 0 0-.14.15.15 0 0 1 0-.14 2 2 0 0 1 .29-.45.57.57 0 0 0 .11-.53v-.09a.8.8 0 0 0 .16-.08v.29c.137.15.258.315.36.49a.15.15 0 0 1 .08.08zm-.396 1.31a.739.739 0 0 0-.232.38.465.465 0 0 1-.114-.126l-.03-.083c-.01-.064.01-.129.063-.19a.667.667 0 0 0 .162-.41c.222.14.272.28.151.41zm-.404 1c-.045.096-.08.197-.1.3l-.351-.37-.191.21a.14.14 0 0 1-.11 0 2.007 2.007 0 0 1-.331-.21c-.05.1-.108.198-.171.29-.065.104-.12.215-.16.33-.084.163-.15.334-.201.51-.06.17-.11.34-.17.51a.468.468 0 0 0 0 .16.32.32 0 0 1 0 .16.35.35 0 0 0 0 .17.24.24 0 0 1-.08.16.201.201 0 0 1-.141 0h-.11a1.584 1.584 0 0 1 0-.37l-.081-.12a.19.19 0 0 0-.07-.12 3.62 3.62 0 0 1-.11.4.997.997 0 0 1 0-.83.661.661 0 0 1 .46-.43.778.778 0 0 1 .101-.45 2.19 2.19 0 0 1 .301-.45.909.909 0 0 0 .261-.63c.015-.27-.019-.541-.1-.8a.558.558 0 0 1 .06-.46c.098-.176.173-.364.22-.56a.765.765 0 0 0 .191 0 .13.13 0 0 1 .1 0 .588.588 0 0 0 0 .14.18.18 0 0 1 0 .14 1.93 1.93 0 0 1-.23.35c-.09.09 0 .21.27.35.06 0 .06.12 0 .3l-.1.47c.02.163.02.328 0 .49h.19c.091-.19.192-.38.272-.57.08-.19.19-.39.31-.61l.091.16a.658.658 0 0 0 0 .53l.008.021a.244.244 0 0 0 .03.083l.143.386a.37.37 0 0 1-.201.36zm-.719 2.1c0 .08 0 .19.19.32s0 .1 0 .21a.33.33 0 0 1-.08.24l-.33.64c-.11.2-.24.41-.38.63.31.3.21.54-.29.73-.11.28-.2.52-.27.74-.072.224-.162.441-.269.65a3.22 3.22 0 0 0-.23.59c0 .18 0 .36.27.55.27.19.12.24 0 .47a.73.73 0 0 1-.36.43 1.068 1.068 0 0 1-.27.06.41.41 0 0 0-.23.1l.09.25a.76.76 0 0 0 .08.2h-.46c.132.223.243.457.33.7l-.27.22a1.86 1.86 0 0 0-.26.23.14.14 0 0 1-.12 0 .62.62 0 0 0 0-.55c-.1-.166-.04-.336.18-.51v-.2c-.03-.394-.01-.79.06-1.18.077-.4.241-.78.48-1.11a1.001 1.001 0 0 0 0-.32c.055-.172.089-.35.1-.53a2 2 0 0 1 .1-.49c0-.06.05-.08.15-.06.103.015.207.015.31 0a.23.23 0 0 0 .19-.18l.06-.16-.25.06-.21.06a2.456 2.456 0 0 0 0-.26.33.33 0 0 1 0-.23c.05-.141.073-.29.07-.44 0-.15.15-.2.43-.14a.83.83 0 0 0-.33-.26c-.09 0-.17 0-.22.26l-.63 2.11-.08.2a.64.64 0 0 1-.13.17h-.12c0-.24.02-.49.06-.75.04-.26.06-.51.06-.75h-.08c.053-.103.117-.2.19-.29a2.45 2.45 0 0 0 .18-.29.44.44 0 0 0 .06-.16v-.08c-.24-.17-.32-.33-.22-.49.095-.155.182-.315.26-.48a1.52 1.52 0 0 0 0 .23 2.248 2.248 0 0 0 0 .22h.1c0-.11.06-.3.1-.57l.24.23.32.26a.78.78 0 0 0 .16-.22c.064-.112.121-.23.17-.35a1.57 1.57 0 0 0 .12-.69.82.82 0 0 1 .18-.66c.14-.16.28-.34.42-.53h.12a1.59 1.59 0 0 0-.1.37c-.024.126-.057.25-.1.37l.24-.08a.69.69 0 0 1 .25 0 .54.54 0 0 1 .219 0l.22.08.09.2a1.858 1.858 0 0 1-.41-.1 2.752 2.752 0 0 1-.15.33zm-3.157 6.73h-.13a3.3 3.3 0 0 1 0-.53c0-.16 0-.33.05-.49.008-.165.032-.329.07-.49a.1.1 0 0 1 .081-.1.192.192 0 0 0 .131-.1c.101.11.162.17.162.2l-.182.76c-.06.25-.121.51-.182.75zm1.182-6.81h.06c.01.053.01.107 0 .16a.287.287 0 0 0 0 .16c.08.015.163.015.243 0a.754.754 0 0 1 .252 0v.12a.64.64 0 0 1-.272.1.65.65 0 0 0-.263.1.662.662 0 0 1-.191 0h-.222c.151-.18.242-.43.323-.64a.081.081 0 0 1 .07 0zm1.846-5.435c.056-.106.103-.215.142-.328.05-.1.09-.208.151-.318.06-.109 0-.07.162-.129a.266.266 0 0 1 .08.17c-.08.217-.161.406-.242.585-.08.178-.171.367-.252.585a.092.092 0 0 0-.08 0 .102.102 0 0 1-.082 0 .674.674 0 0 0 .04-.327.452.452 0 0 1 .081-.238zm2.048-3.465a2.29 2.29 0 0 1-.543 1.59.819.819 0 0 0-.212.37l-.382 1.35s-.1.08-.302.08c.34-1.183.824-2.321 1.439-3.39zm11.053-10.19v-.1a.4.4 0 0 1 0-.2.44.44 0 0 0 0-.21l-.26-.42a4.15 4.15 0 0 0-.3-.43.49.49 0 0 0-.08-.1.4.4 0 0 1-.13-.1 3.34 3.34 0 0 0-.53-.37 1.15 1.15 0 0 1-.45-.45 2.54 2.54 0 0 0-.51-.62 1.42 1.42 0 0 0-.73-.34.25.25 0 0 1-.2-.09.93.93 0 0 0-1.31-.12 4.46 4.46 0 0 0-1.37 1.43c-.142.24-.3.47-.47.69v.1a.23.23 0 0 0 0 .11c-.51.46-1 .91-1.53 1.34-.53.43-1 .89-1.57 1.35.06 0 .1.08.12.08l1.36-1.25 1.47-1.25a1.25 1.25 0 0 1-.22.37 1.28 1.28 0 0 0-.23.37l-1 1.79c-.31.6-.63 1.2-1 1.8-.37.6-.62 1.24-.94 1.83-.32.59-.63 1.22-.93 1.84l-1.19 2.82c-.39.92-.77 1.86-1.15 2.81-.32.79-.63 1.59-.93 2.39-.3.8-.59 1.6-.88 2.39-.14.43-.29.87-.45 1.3-.16.43-.31.89-.44 1.35-.13.46-.26.92-.37 1.39-.11.47-.21.92-.32 1.38-.053.3-.113.58-.18.84-.068.273-.115.55-.14.83-.05.49-.1 1-.12 1.49-.03.496-.03.994 0 1.49.02.84.165 1.673.43 2.47a3.81 3.81 0 0 0 1.45 2 .74.74 0 0 1 .21.22.37.37 0 0 0 .2.19c.211.076.429.13.65.16a.89.89 0 0 1 .57.33c0 .05.11.08.25.08a1.31 1.31 0 0 0 1-1.47l-.41.06a2.13 2.13 0 0 0-.4.1l-.41.06c-.13 0-.22-.06-.28-.22a2.16 2.16 0 0 1-.11-.49 3.82 3.82 0 0 0-.1-.57c.28 0 .45 0 .5-.12a1.63 1.63 0 0 0 .07-.45v-.78a7.209 7.209 0 0 1 0-.79v-.41a2.93 2.93 0 0 1 .07-.41c.05-.3.12-.61.18-.94.06-.33.13-.64.19-.93h-.37c.13-.194.27-.381.42-.56a1.88 1.88 0 0 0 .31-.51c.142-.3.26-.61.35-.93.1-.33.2-.66.31-1a.65.65 0 0 0 0-.21.4.4 0 0 1 0-.2h-.12c-.14.21-.28.44-.41.67-.13.23-.27.46-.41.67a1.42 1.42 0 0 1 0-.57l.73-2c.11-.27.21-.54.31-.81.1-.28.217-.554.35-.82a.92.92 0 0 1 .28-.24v-.27a.21.21 0 0 0-.16-.06h-.23a.16.16 0 0 1-.16-.12l.47-.19a2.54 2.54 0 0 1 .47-.14c.41-.05.56-.27.45-.65-.059.14-.136.27-.23.39-.09.12-.25.13-.46 0 .13-.25.25-.49.36-.74l.33-.73.45.16c0-.16.11-.31.16-.43s.11-.25.16-.38 0-.05-.06-.05h-.06a2.68 2.68 0 0 1-.18.33c-.07.11-.13.22-.19.33a.76.76 0 0 1 .11-.66.82.82 0 0 1 .51-.24c.08 0 .12 0 .12-.08a.17.17 0 0 0 0-.21.91.91 0 0 0-.33-.16l.59-.67.55-.64a1.82 1.82 0 0 1 0-.32 3.12 3.12 0 0 1 .06-.37.27.27 0 0 1 .18-.21.29.29 0 0 0 .06-.17 1.25 1.25 0 0 1 .28-.85c.19-.22.4-.44.62-.66a4.09 4.09 0 0 0 1-1.55.62.62 0 0 1 .14-.28 1.19 1.19 0 0 0 .18-.29 1 1 0 0 0 .11-.34.34.34 0 0 1 .14-.27.82.82 0 0 0 .39-.49 1.15 1.15 0 0 1 .26-.53l.29-.37.24-.36c.06-.06.08-.1.08-.13a.56.56 0 0 1 .15-.55 1.65 1.65 0 0 0 .34-.47c.55-.81 1.14-1.66 1.8-2.53.13-.211.281-.409.45-.59l.49-.55a2.48 2.48 0 0 1 .4-.39 2.47 2.47 0 0 0 .45-.4 1.62 1.62 0 0 0 .31-.49 1.14 1.14 0 0 0 0-.64s.05-.1.08-.1z"/><path id="kxviy" d="M205.2 81.25s0 .11-.08.16c.25.06.41 0 .49-.08a1 1 0 0 0 .08-.65l-.41.41a1.19 1.19 0 0 1-.08.16z"/><path id="kxviA" d="M193.72 65.42c-.043.14-.093.276-.15.41a.55.55 0 0 1 .21.08 3 3 0 0 1 .28-.78.71.71 0 0 1-.2-.12 3.31 3.31 0 0 0-.14.41z"/><path id="kxviC" d="M198.213 58.58c-.033.106-.073.21-.12.31l-.65 1.06c-.22.35-.44.72-.66 1.1a3.35 3.35 0 0 0-.32.72c-.08.25-.19.488-.33.71-.086.17-.2.322-.34.45a1.45 1.45 0 0 0-.34.45c-.13.22-.27.43-.41.63a1.24 1.24 0 0 0-.22.76.34.34 0 0 1-.1.22 2 2 0 0 0-.19.22l-.94 1.76c-.11.22-.22.42-.33.61-.11.19-.21.39-.32.61a5.571 5.571 0 0 0-.37.68c-.11.23-.22.46-.33.71-.19.44-.37.86-.53 1.29-.16.43-.33.85-.49 1.28-.16.43-.27.7-.39 1-.12.3-.25.69-.39 1a2.84 2.84 0 0 0-.1.49 2.13 2.13 0 0 1-.1.49l-.16.24a2.5 2.5 0 0 0-.17.33l.21.14.28.23-.3.16a.56.56 0 0 0-.22.21 2 2 0 0 0-.13.42 1.52 1.52 0 0 1-.12.43c-.13.47-.27.93-.4 1.39-.13.46-.28.92-.41 1.39a1.24 1.24 0 0 0-.06.51c.02.183.02.367 0 .55h-.12c0-.19-.06-.37-.09-.53a4.22 4.22 0 0 1 0-.49c0-.22.06-.42.08-.61.032-.209.075-.416.13-.62a.24.24 0 0 1 .08-.2c.19-.24.15-.38-.12-.41-.27-.03-.29-.15-.13-.36a1.5 1.5 0 0 1 .17-.45c.053-.14.133-.21.24-.21.16 0 .25-.08.26-.16.01-.08 0-.16-.14-.25s-.17-.19-.12-.26a.35.35 0 0 1 .2-.14.39.39 0 0 0 .23-.13.32.32 0 0 0 .06-.2.75.75 0 0 1 0-.22.39.39 0 0 1 .1-.19l-.18-.18a2.279 2.279 0 0 0-.27-.23l.33-.1a1.06 1.06 0 0 0 .28-.1l-.24-.37a2.55 2.55 0 0 0 .3-.26c.096-.098.2-.188.31-.27 0-.16.1-.34.14-.53l.14-.65a4.47 4.47 0 0 0-.32.35l-.32.34a2.47 2.47 0 0 1 .24-.88.93.93 0 0 1 .57-.18l.14-.3.14-.35-.49-.12a.14.14 0 0 0 0-.07.08.08 0 0 1 0-.06 1.58 1.58 0 0 0 .28-.08l.25-.08v-1.47a2 2 0 0 0 .38.16.52.52 0 0 1 .23.13c.08-.17.15-.32.22-.45a4.23 4.23 0 0 1 .23-.41.93.93 0 0 0-.27-.12c-.09 0-.14-.07-.14-.13v-.22l.12-.22c.08-.17.16-.33.23-.49a2.11 2.11 0 0 1 .26-.49.21.21 0 0 1 .12-.11.31.31 0 0 0 .17-.1.86.86 0 0 0 0 .21.41.41 0 0 1 0 .2c-.09.14-.18.27-.29.41l-.33.41.12.12a3.88 3.88 0 0 1 .26-.31 1.05 1.05 0 0 0 .22-.3 5.84 5.84 0 0 0 .2-.64 3.1 3.1 0 0 1 .24-.63.26.26 0 0 1 .14-.13.62.62 0 0 0 .23-.12.64.64 0 0 0-.13-.17 1.54 1.54 0 0 0-.32.08l-.08-.16c.05-.16.11-.33.16-.51.06-.187.13-.37.21-.55a6.37 6.37 0 0 1 .35-.63c.12-.207.25-.417.39-.63.26-.33.457-.707.58-1.11 0-.05.09-.08.18-.1a.52.52 0 0 0 .27-.1 1.07 1.07 0 0 1 .27-.06.64.64 0 0 0 .23-.06 4.938 4.938 0 0 0-.33-.57l.16-.09a.64.64 0 0 0 .17.13l.2.12.21-.27a2 2 0 0 0 .2-.26l-.37.14-.33.14-.12-.08c.05-.082.09-.169.12-.26a.84.84 0 0 1 .13-.27c.254.074.525.074.78 0 .19-.08.32-.31.37-.69a1.86 1.86 0 0 1-.53.08c0-.14.1-.27.14-.41.04-.14.17-.17.39-.12.22.05.2 0 .28-.12a7 7 0 0 1 .45-.7c.17-.222.271-.49.29-.77a1.09 1.09 0 0 1 .18-.51c.1-.12.29-.16.6-.1a1.82 1.82 0 0 0-.1.27zm-1.13 5.76a1.37 1.37 0 0 1-.59.47l.41-.68c.14-.23.29-.49.45-.79l.08.16a.27.27 0 0 1 0 .12 1.84 1.84 0 0 1-.33.68zm-.89 0a1 1 0 0 1-.07.47 1.43 1.43 0 0 0-.06.51c0 .17-.13.25-.43.22 0 .22-.09.38-.12.49h-.16c.038-.148.068-.298.09-.45a2.67 2.67 0 0 1 .08-.45h-.42a.38.38 0 0 0 .08-.24.32.32 0 0 1 .08-.21c.13-.16.26-.32.37-.47l.38-.46.2.08a1.72 1.72 0 0 0 0 .51zm-.74 2.83a5.84 5.84 0 0 1-.35.57.94.94 0 0 1 .71-1.18zm-.45-.85c-.07.3-.13.59-.18.89h-.08a.15.15 0 0 1-.09 0 1.85 1.85 0 0 0-.24-.42c-.107-.147-.147-.237-.12-.27a.33.33 0 0 0 .08-.24 3.001 3.001 0 0 1 0-.31.25.25 0 0 1 .12-.2.54.54 0 0 1 .35 0 .65.65 0 0 0 .06-.21.52.52 0 0 1 .06-.2.44.44 0 0 0 .21 0c-.02.36-.08.64-.17.96zm-.59 2.32l-.31.23-.3.22-.19-.09-.16-.12a.29.29 0 0 1-.08-.19.37.37 0 0 0 0-.18c.11 0 .18-.08.2-.16.03-.087.05-.178.06-.27a1.62 1.62 0 0 1 .06-.22c0-.06.11-.07.25 0 .159.067.304.162.43.28a.4.4 0 0 1 .02.5zm-.41.94a.35.35 0 0 1-.21.1.42.42 0 0 0-.2.1c.055.062.115.118.18.17.073.058.15.111.23.16l-.19.25c-.07.08-.18.08-.35 0h-.12a.41.41 0 0 0 0 .55l.12.12a1.24 1.24 0 0 0-.74.73 5.25 5.25 0 0 1-.41.94l-.23-.24a2.47 2.47 0 0 1-.24-.29l.22-.06.21-.06-.15-.14-.2-.15.37-.2a2 2 0 0 1-.08-.53 2.75 2.75 0 0 0 .49-.11l-.21-.17c-.08-.07-.18-.15-.28-.25a.66.66 0 0 1 .26-.11.8.8 0 0 0 .31-.1.63.63 0 0 0 .28-.46.62.62 0 0 1-.24.1.68.68 0 0 0-.25.11.08.08 0 0 0 0-.07.08.08 0 0 1 0-.06c.06-.087.117-.177.17-.27l.16-.32c.14.048.277.104.41.17a.73.73 0 0 1 0-.25 2.63 2.63 0 0 0 0-.33c.16.17.354.302.57.39.2.07.4 0 .62-.23a.37.37 0 0 1 .07.25zm-2.14 3.96c-.08.3-.16.6-.25.92a8.75 8.75 0 0 1-.28.91.4.4 0 0 1-.14.15 1.33 1.33 0 0 0-.166.12 3.7 3.7 0 0 0-.224-.27l-.29-.32a1.11 1.11 0 0 1 .29 0h.32a1.38 1.38 0 0 0 .09-.23c0-.09 0-.2.08-.3a.39.39 0 0 0-.21-.11.5.5 0 0 1-.24-.1c.13-.11.26-.2.37-.28a3.92 3.92 0 0 1 .32-.25h-.12c0-.13-.06-.26-.08-.37a2.781 2.781 0 0 1-.08-.36v-.27a.37.37 0 0 1 .18-.08h.21c.06 0 .11 0 .14-.12.16.22.18.34.06.38a3.438 3.438 0 0 0-.39.19c.06.045.123.085.19.12.06.07.14.16.22.27zm-.86 2.12c0 .14 0 .27-.06.41a1.63 1.63 0 0 1-.1.41 2.72 2.72 0 0 0-.2.83 1.22 1.22 0 0 1-.37.76v.12a.22.22 0 0 1 0 .16.15.15 0 0 1-.06.13.27.27 0 0 0-.1.08c-.14-.06-.21-.1-.21-.13v-.34a.41.41 0 0 1 .08-.27 1.39 1.39 0 0 0 .35-.73 2.47 2.47 0 0 1 .26-.78.32.32 0 0 0 0-.36 3.07 3.07 0 0 1-.2-.41l.35.06.267.053a1.504 1.504 0 0 0-.007.007zm.007-.007l.017-.014.016.021zm5.993-16.763c.109-.197.229-.387.36-.57l.08.08c-.05.187-.11.37-.18.55-.07.18-.14.36-.22.55l-.45.08zm11.71-9.2l-.33-1a1 1 0 0 0-.77-.69.88.88 0 0 1-.37-.33 1.83 1.83 0 0 0-.37-.41 1.58 1.58 0 0 1-.4-.53.58.58 0 0 0-.57-.33 5.46 5.46 0 0 0-.56 0h-.59a.65.65 0 0 0 .11-.22.55.55 0 0 1 .1-.23l-.64.15a.8.8 0 0 0-.51.39 34.91 34.91 0 0 1-1.63 2.77l-1.56 2.61-1.55 2.61c-.5.79-1 1.59-1.48 2.39s-1 1.6-1.43 2.39c-.43.79-1 1.75-1.52 2.65-.52.9-1 1.78-1.47 2.65-.28.46-.54.93-.78 1.41-.24.47-.48 1-.69 1.45a7.859 7.859 0 0 0-.45 1c-.14.35-.27.7-.41 1.06-.3.79-.6 1.56-.9 2.32-.3.762-.557 1.54-.77 2.33-.226.715-.41 1.443-.55 2.18-.15.75-.3 1.48-.43 2.19a8.76 8.76 0 0 0 .32 5.4c.175.442.473.824.86 1.1.234.127.42.327.53.57a1 1 0 0 0 .82.7v.12a.22.22 0 0 0 .1 0 .19.19 0 0 1 .1 0l.18-.08.19-.08a5.65 5.65 0 0 0 .61-.45 4.35 4.35 0 0 1 .61-.45v-.16a2.77 2.77 0 0 1 .34-1.66 14.5 14.5 0 0 1 .95-1.51 8.84 8.84 0 0 1 .8-.94 3 3 0 0 0 .65-1c.1-.3.21-.59.32-.86a3.48 3.48 0 0 1 .44-.77c.288-.342.559-.7.81-1.07l.77-1.1c.3-.38.59-.77.89-1.16.3-.39.59-.78.89-1.16.3-.38.76-.9 1.13-1.39.16-.25.33-.5.49-.76l.48-.75-.16-.04-1.47 1.77c-.49.59-1 1.19-1.47 1.82l-.24-.25c1.3-1.79 2.65-3.55 4-5.26s2.87-3.39 4.41-5a5.56 5.56 0 0 0-.89.39 2.16 2.16 0 0 0-.72.67c-.229.341-.501.65-.81.92-.32.29-.63.58-.93.88l-1.19 1.4-1.17 1.4a1.43 1.43 0 0 0-.2.39 2.2 2.2 0 0 1-.18.41 1.35 1.35 0 0 1-.26.33.75.75 0 0 1-.49.14.9.9 0 0 1-.36.81 3.35 3.35 0 0 0-.66.58c-.24.27-.47.55-.69.83a3.53 3.53 0 0 0-.53 1 3.19 3.19 0 0 1-.6.86c-.25.27-.52.54-.79.81a7.12 7.12 0 0 0-1.17 1.43 9.25 9.25 0 0 0-.76 1.67c0 .05 0 .09-.11.12a.57.57 0 0 0-.18.12c-.3.33-.59.66-.86 1-.27.34-.53.69-.78 1a2.83 2.83 0 0 0-.34.51c-.1.18-.2.35-.31.51a1.06 1.06 0 0 0 .08-.43 1.26 1.26 0 0 1 .08-.43 3.07 3.07 0 0 1 .11-.36c.041-.12.075-.245.1-.37 0-.27.1-.54.14-.8.04-.26.09-.52.15-.79.022-.165.056-.329.1-.49 0-.17.09-.33.14-.49.05-.16.23-.21.37-.53.14-.32.27-.68.39-1.06s.23-.74.31-1.08a1.49 1.49 0 0 0 .08-.6c.16-.3.31-.55.43-.77.12-.22.25-.44.39-.65l-.13-.05-.34.21-.06-.08a.27.27 0 0 0-.07-.08.9.9 0 0 0 .15-.19.17.17 0 0 1 .14-.1c.2 0 .32 0 .38-.1l.17-.31a1.79 1.79 0 0 1 .18-.34 1 1 0 0 0 .15-.37 1.41 1.41 0 0 0 0-.41v-.41c0-.14 0 0 0 0h.37c-.22-.3-.27-.51-.16-.63a2 2 0 0 1 .53-.39 1.27 1.27 0 0 0-.09-.41h.09a.11.11 0 0 0 .08 0 1.24 1.24 0 0 1 .18-.22 1.45 1.45 0 0 0 .19-.23.28.28 0 0 0 .08-.2.4.4 0 0 1 0-.2c.24-.47.48-.92.71-1.35.24-.452.508-.89.8-1.31.22-.33.398-.686.53-1.06a1.59 1.59 0 0 1 .77-.89c.09-.084.187-.16.29-.23.13-.09.13-.25 0-.47v-.08l.1-.12a5.17 5.17 0 0 1 .57-.78 1.57 1.57 0 0 0 .41-.81c.08-.09.11-.13.08-.13a.66.66 0 0 0 .43-.4c.07-.19.14-.39.22-.58a2.72 2.72 0 0 1 .66-.73c.455-.35.76-.862.85-1.43a.17.17 0 0 1 .05-.12l.08-.12a3.88 3.88 0 0 1 .26-.31 1.26 1.26 0 0 0 .23-.3 1.51 1.51 0 0 0 .16-.41c0-.14.14-.23.33-.29a.32.32 0 0 0 .12-.18.62.62 0 0 1 .12-.23 1.58 1.58 0 0 1 .41-.32c0-.06.04-.08.12-.06a.09.09 0 0 0 .12-.07c.17-.21.33-.43.49-.65l.49-.65c.3-.38.59-.76.86-1.14l.82-1.15a3.06 3.06 0 0 0 .26-.51c.07-.17.14-.36.23-.55a.7.7 0 0 1 .1-.16l.14-.16a1.18 1.18 0 0 1 .2-.17.89.89 0 0 0 .21-.16 1.39 1.39 0 0 0 .22-1.13z"/><linearGradient id="kxvil" x1="171.45" x2="194.98" y1="86.75" y2="64.13" gradientUnits="userSpaceOnUse"><stop offset="0" stop-color="#0092d7"/><stop offset=".16" stop-color="#3a5db3"/><stop offset=".3" stop-color="#62399a"/><stop offset=".36" stop-color="#712b90"/><stop offset="1" stop-color="#c4005b"/></linearGradient><linearGradient id="kxvin" x1="167.85" x2="191.41" y1="83.02" y2="60.4" gradientUnits="userSpaceOnUse"><stop offset="0" stop-color="#0092d7"/><stop offset=".16" stop-color="#3a5db3"/><stop offset=".3" stop-color="#62399a"/><stop offset=".36" stop-color="#712b90"/><stop offset="1" stop-color="#c4005b"/></linearGradient><linearGradient id="kxvip" x1="168.54" x2="192.1" y1="83.74" y2="61.11" gradientUnits="userSpaceOnUse"><stop offset="0" stop-color="#0092d7"/><stop offset=".16" stop-color="#3a5db3"/><stop offset=".3" stop-color="#62399a"/><stop offset=".36" stop-color="#712b90"/><stop offset="1" stop-color="#c4005b"/></linearGradient><linearGradient id="kxvir" x1="169.37" x2="192.93" y1="84.6" y2="61.98" gradientUnits="userSpaceOnUse"><stop offset="0" stop-color="#0092d7"/><stop offset=".16" stop-color="#3a5db3"/><stop offset=".3" stop-color="#62399a"/><stop offset=".36" stop-color="#712b90"/><stop offset="1" stop-color="#c4005b"/></linearGradient><linearGradient id="kxvit" x1="171.01" x2="194.57" y1="86.31" y2="63.69" gradientUnits="userSpaceOnUse"><stop offset="0" stop-color="#0092d7"/><stop offset=".16" stop-color="#3a5db3"/><stop offset=".3" stop-color="#62399a"/><stop offset=".36" stop-color="#712b90"/><stop offset="1" stop-color="#c4005b"/></linearGradient><linearGradient id="kxviv" x1="170.3" x2="193.91" y1="85.6" y2="62.98" gradientUnits="userSpaceOnUse"><stop offset="0" stop-color="#0092d7"/><stop offset=".16" stop-color="#3a5db3"/><stop offset=".3" stop-color="#62399a"/><stop offset=".36" stop-color="#712b90"/><stop offset="1" stop-color="#c4005b"/></linearGradient><linearGradient id="kxvix" x1="196.03" x2="219.41" y1="88.2" y2="64.7" gradientUnits="userSpaceOnUse"><stop offset="0" stop-color="#0092d7"/><stop offset=".16" stop-color="#3a5db3"/><stop offset=".3" stop-color="#62399a"/><stop offset=".36" stop-color="#712b90"/><stop offset="1" stop-color="#c4005b"/></linearGradient><linearGradient id="kxviz" x1="197.27" x2="220.65" y1="89.43" y2="65.93" gradientUnits="userSpaceOnUse"><stop offset="0" stop-color="#0092d7"/><stop offset=".16" stop-color="#3a5db3"/><stop offset=".3" stop-color="#62399a"/><stop offset=".36" stop-color="#712b90"/><stop offset="1" stop-color="#c4005b"/></linearGradient><linearGradient id="kxviB" x1="181.6" x2="208.73" y1="77.79" y2="50.41" gradientUnits="userSpaceOnUse"><stop offset="0" stop-color="#0092d7"/><stop offset=".16" stop-color="#3a5db3"/><stop offset=".3" stop-color="#62399a"/><stop offset=".36" stop-color="#712b90"/><stop offset="1" stop-color="#c4005b"/></linearGradient><linearGradient id="kxviD" x1="183.99" x2="211.11" y1="80.15" y2="52.78" gradientUnits="userSpaceOnUse"><stop offset="0" stop-color="#0092d7"/><stop offset=".16" stop-color="#3a5db3"/><stop offset=".3" stop-color="#62399a"/><stop offset=".36" stop-color="#712b90"/><stop offset="1" stop-color="#c4005b"/></linearGradient></defs><g><g transform="translate(-166 -46)"><g/><g><use fill="#0f206c" xlink:href="#kxvia"/></g><g><use fill="#0f206c" xlink:href="#kxvib"/></g><g><use fill="#0f206c" xlink:href="#kxvic"/></g><g><use fill="#0f206c" xlink:href="#kxvid"/></g><g><use fill="#0f206c" xlink:href="#kxvie"/></g><g><use fill="#0f206c" xlink:href="#kxvif"/></g><g><use fill="#0f206c" xlink:href="#kxvig"/></g><g><use fill="#0f206c" xlink:href="#kxvih"/></g><g><use fill="#0f206c" xlink:href="#kxvii"/></g><g><use fill="#0f206c" xlink:href="#kxvij"/></g><g><use fill="url(#kxvil)" xlink:href="#kxvik"/></g><g><use fill="url(#kxvin)" xlink:href="#kxvim"/></g><g><use fill="url(#kxvip)" xlink:href="#kxvio"/></g><g><use fill="url(#kxvir)" xlink:href="#kxviq"/></g><g><use fill="url(#kxvit)" xlink:href="#kxvis"/></g><g><use fill="url(#kxviv)" xlink:href="#kxviu"/></g><g><use fill="url(#kxvix)" xlink:href="#kxviw"/></g><g><use fill="url(#kxviz)" xlink:href="#kxviy"/></g><g><use fill="url(#kxviB)" xlink:href="#kxviA"/></g><g><use fill="url(#kxviD)" xlink:href="#kxviC"/></g></g></g></svg>