<?xml version="1.0" encoding="UTF-8"?>
<svg width="29px" height="40px" viewBox="0 0 29 40" version="1.1" xmlns="http://www.w3.org/2000/svg" xmlns:xlink="http://www.w3.org/1999/xlink">
    <!-- Generator: Sketch 52.4 (67378) - http://www.bohemiancoding.com/sketch -->
    <title>025-medal copy</title>
    <desc>Created with Sketch.</desc>
    <defs>
        <linearGradient x1="0%" y1="0%" x2="97.4516747%" y2="100%" id="linearGradient-1">
            <stop stop-color="#0086C1" offset="0%"></stop>
            <stop stop-color="#712B90" offset="49.4332551%"></stop>
            <stop stop-color="#B01252" offset="100%"></stop>
        </linearGradient>
    </defs>
    <g id="Set-1" stroke="none" stroke-width="1" fill="none" fill-rule="evenodd">
        <g id="Icons" transform="translate(-447.000000, -131.000000)" fill="url(#linearGradient-1)" fill-rule="nonzero">
            <g id="025-medal-copy" transform="translate(447.000000, 131.000000)">
                <path d="M7.0992596,9.96875 C6.96631179,9.85703125 6.79493975,9.78984375 6.6089665,9.78984375 C6.18476307,9.78984375 5.84048203,10.1398437 5.84048203,10.5710937 C5.84048203,10.9398437 6.09100797,11.2476562 6.42760417,11.3296875 C6.48600899,11.3445312 6.54671926,11.3523437 6.6089665,11.3523437 C7.03316993,11.3523437 7.37745098,11.003125 7.37745098,10.5710937 C7.37745098,10.3289063 7.26909467,10.1133594 7.0992596,9.96875 Z" id="Shape"></path>
                <path d="M18.8532297,13.3616406 C18.7627791,13.0788281 18.5223203,12.8727344 18.232909,12.83 L15.9868594,12.4984375 L14.9829882,10.429375 C14.8534985,10.1626562 14.5863733,9.99375 14.2938113,9.99375 C14.2938113,9.99375 14.2938113,9.99375 14.2937344,9.99375 C14.0012492,9.99375 13.734124,10.1625781 13.6046344,10.4292188 L12.6000715,12.4984375 L10.3539451,12.8300781 C10.064457,12.8728125 9.82399816,13.0789063 9.73362439,13.3617188 C9.64317376,13.6445313 9.71856209,13.955 9.92789726,14.1625781 L11.5530114,15.7735938 L11.1693839,18.0478125 C11.1199704,18.3408594 11.2384707,18.6371094 11.4751639,18.811875 C11.7117803,18.9867188 12.0256293,19.0096875 12.2844549,18.8713281 L14.2937344,17.7975781 L16.3023223,18.8713281 C16.5594572,19.00875 16.8733831,18.9879688 17.1116133,18.811875 C17.3483065,18.6371094 17.4668068,18.3408594 17.4173933,18.0478125 L17.0337658,15.7735938 L18.65888,14.1625781 C18.868292,13.9549219 18.9436803,13.6444531 18.8532297,13.3616406 Z M15.6716271,14.9414844 C15.490649,15.1209375 15.4079601,15.3794531 15.4506878,15.6328906 L15.6393507,16.7514844 L14.6515408,16.2233594 C14.4276813,16.1036719 14.1602487,16.1036719 13.9362354,16.2233594 L12.9475033,16.7517969 L13.1362431,15.6328906 C13.1789708,15.3795313 13.0962819,15.1210156 12.9153038,14.9414844 L12.1156957,14.1488281 L13.2208532,13.9857031 C13.4711486,13.94875 13.6875539,13.7889063 13.7994452,13.5583594 L14.2936576,12.540625 L14.787332,13.5582031 C14.8993002,13.7889063 15.1157054,13.94875 15.3660777,13.9857031 L16.471312,14.1488281 L15.6716271,14.9414844 Z" id="Shape"></path>
                <path d="M14.2938113,5.10242187 C10.4358655,5.10242187 8.09798203,7.55421875 8.04803054,7.58507812 C7.73425832,7.875625 7.71166488,8.36976562 7.99746426,8.68867187 C8.28334048,9.00765625 8.76933007,9.030625 9.08310228,8.74007812 C10.6204555,7.32226562 12.4505244,6.66492187 14.2938113,6.66492187 C18.5313115,6.66492187 21.978656,10.1696094 21.978656,14.4774219 C21.978656,18.7711719 18.5522143,22.2899219 14.2938113,22.2899219 C9.94733992,22.2899219 6.40339691,18.5939062 6.61857256,14.0828906 C6.62571946,13.9496094 6.63570976,13.8157812 6.64831291,13.685 C6.68981107,13.255625 6.38095716,12.8732812 5.95859809,12.8311719 C5.53454836,12.7885156 5.16006587,13.1029688 5.11864456,13.5323438 C5.10388965,13.6857031 5.09205499,13.8425781 5.08360166,14.0028125 C4.82523718,19.4065625 9.06780944,23.8523437 14.2938113,23.8523437 C19.416452,23.8523437 23.515625,19.6119531 23.515625,14.4773437 C23.515625,9.30796875 19.3787194,5.10242187 14.2938113,5.10242187 Z" id="Shape"></path>
                <path d="M28.3734459,13.9986719 L26.2536583,11.2198437 L26.7231255,7.73578125 C26.7707715,7.3825 26.5770366,7.04125 26.2523519,6.90648437 L23.0491549,5.57664063 L21.7418091,2.32117188 C21.6092456,1.99101563 21.2735715,1.79382813 20.9260629,1.84242188 L17.4989295,2.3196875 L14.7648154,0.163984375 C14.4876231,-0.054609375 14.1000763,-0.054609375 13.8228071,0.163984375 L11.0886931,2.31976563 L7.66155969,1.8425 C7.31420471,1.79421875 6.97837699,1.99101563 6.84581342,2.32125 L5.53846763,5.57671875 L2.33527063,6.9065625 C2.01058594,7.04140625 1.816851,7.38257813 1.86449704,7.73585938 L2.33396421,11.2199219 L0.214176624,13.99875 C-0.000691636029,14.2803906 -0.000691636029,14.674375 0.214176624,14.9561719 L2.33404105,17.7357812 L1.86457389,21.2199219 C1.81692785,21.5732813 2.01073963,21.9145312 2.33550117,22.0492969 L5.53854448,23.3783594 L6.84581342,26.6345312 C6.97845384,26.9647656 7.3143584,27.1619531 7.66163654,27.1132812 L8.91441993,26.9385938 L8.91441993,39.21875 C8.91441993,39.5347656 9.1016996,39.8196094 9.3888054,39.9405469 C9.6760649,40.0613281 10.0065901,39.9946094 10.2262998,39.7711719 L14.2938113,35.6360938 L18.3613228,39.7711719 C18.5811862,39.9946875 18.9116345,40.0613281 19.1988171,39.9405469 C19.4859229,39.8196094 19.6732026,39.5347656 19.6732026,39.21875 L19.6732026,26.9385938 L20.9260629,27.113125 C21.2736484,27.1617188 21.6093993,26.9646094 21.741886,26.634375 L23.0491549,23.3782031 L26.2521982,22.0491406 C26.5769598,21.914375 26.7707715,21.573125 26.7231255,21.2197656 L26.2536583,17.735625 L28.3735228,14.9560156 C28.588391,14.6742969 28.588391,14.2803906 28.3734459,13.9986719 Z M18.1362337,37.3326562 L14.8372066,33.9788281 C14.5370366,33.67375 14.0505859,33.67375 13.7503391,33.9788281 L10.4513889,37.3326562 L10.4513889,26.7245313 L11.0886931,26.6357813 L13.8229608,28.7908594 C13.9615186,28.9000781 14.1276649,28.9546875 14.2938113,28.9546875 C14.4599576,28.9546875 14.626104,28.9000781 14.7646617,28.7908594 L17.4989295,26.6357813 L18.1362337,26.7245313 L18.1362337,37.3326562 Z M24.8410302,17.0378125 C24.7145376,17.2038281 24.6589762,17.4145312 24.6870259,17.6225781 L25.1194521,20.8315625 L22.1692402,22.0557031 C21.9780413,22.1350781 21.8261887,22.289375 21.7481876,22.48375 L20.5441261,25.4828906 L19.2048113,25.2963281 C19.0850046,25.2446094 18.9521336,25.2230469 18.808965,25.2411719 L17.3875761,25.0432031 C17.1823907,25.0148437 16.9755916,25.0711719 16.8124423,25.1998437 L14.2938113,27.1849219 L11.7752571,25.1997656 C11.6133374,25.0721094 11.4069225,25.0146094 11.2001233,25.043125 L8.04357333,25.4827344 L6.83951185,22.4835937 C6.76143382,22.2891406 6.60965814,22.1348437 6.4184592,22.0555469 L3.46824729,20.8314062 L3.90067351,17.6224219 C3.92872319,17.414375 3.87323861,17.2036719 3.74666922,17.0376562 L1.79410386,14.4774219 L3.74651552,11.9178906 C3.87308492,11.751875 3.92864634,11.5411719 3.90059666,11.3330469 L3.46817045,8.12390625 L6.41853605,6.8990625 C6.60965814,6.8196875 6.76135698,6.66546875 6.839435,6.47109375 L8.04357333,3.47273438 L11.2001233,3.91234375 C11.4052318,3.94070313 11.6121078,3.884375 11.7754108,3.75570313 L14.2938113,1.77007813 L16.8122118,3.75578125 C16.9754379,3.88445313 17.1826981,3.94085938 17.3874992,3.91242188 L20.5440492,3.4728125 L21.7481876,6.47117187 C21.8262656,6.66554687 21.9778876,6.81976562 22.1690865,6.89914062 L25.1194521,8.12398437 L24.6870259,11.333125 C24.6589762,11.54125 24.7144608,11.7519531 24.841107,11.9179687 L26.7935955,14.4775781 L24.8410302,17.0378125 Z" id="Shape"></path>
            </g>
        </g>
    </g>
</svg>