<?xml version="1.0" encoding="UTF-8"?>
<svg width="29px" height="40px" viewBox="0 0 29 40" version="1.1" xmlns="http://www.w3.org/2000/svg" xmlns:xlink="http://www.w3.org/1999/xlink">
    <!-- Generator: Sketch 52.4 (67378) - http://www.bohemiancoding.com/sketch -->
    <title>025-medal</title>
    <desc>Created with Sketch.</desc>
    <g id="Set-1" stroke="none" stroke-width="1" fill="none" fill-rule="evenodd">
        <g id="Icons" transform="translate(-447.000000, -56.000000)" fill="#483065" fill-rule="nonzero">
            <g id="025-medal" transform="translate(447.000000, 56.000000)">
                <path d="M7.18180913,9.96875 C7.04731541,9.85703125 6.87395067,9.78984375 6.68581495,9.78984375 C6.25667892,9.78984375 5.90839461,10.1398437 5.90839461,10.5710937 C5.90839461,10.9398437 6.16183364,11.2476562 6.50234375,11.3296875 C6.5614277,11.3445312 6.6228439,11.3523437 6.68581495,11.3523437 C7.11495098,11.3523437 7.46323529,11.003125 7.46323529,10.5710937 C7.46323529,10.3289063 7.35361903,10.1133594 7.18180913,9.96875 Z" id="Shape"></path>
                <path d="M19.0724533,13.3616406 C18.9809509,13.0788281 18.7376961,12.8727344 18.4449196,12.83 L16.1727531,12.4984375 L15.1572089,10.429375 C15.0262136,10.1626562 14.7559823,9.99375 14.4600184,9.99375 C14.4600184,9.99375 14.4600184,9.99375 14.4599406,9.99375 C14.1640545,9.99375 13.8938231,10.1625781 13.7628278,10.4292188 L12.7465839,12.4984375 L10.4743398,12.8300781 C10.1814855,12.8728125 9.9382307,13.0789063 9.84680607,13.3617188 C9.75530369,13.6445313 9.83156863,13.955 10.0433379,14.1625781 L11.6873487,15.7735938 L11.2992605,18.0478125 C11.2492724,18.3408594 11.3691506,18.6371094 11.608596,18.811875 C11.8479638,18.9867188 12.1654622,19.0096875 12.4272974,18.8713281 L14.4599406,17.7975781 L16.4918842,18.8713281 C16.752009,19.00875 17.0695852,18.9879688 17.3105856,18.811875 C17.550031,18.6371094 17.6699092,18.3408594 17.6199211,18.0478125 L17.2318329,15.7735938 L18.8758437,14.1625781 C19.0876907,13.9549219 19.1639557,13.6444531 19.0724533,13.3616406 Z M15.8538553,14.9414844 C15.6707728,15.1209375 15.5871224,15.3794531 15.630347,15.6328906 L15.8212037,16.7514844 L14.8219076,16.2233594 C14.595445,16.1036719 14.3249027,16.1036719 14.0982847,16.2233594 L13.0980557,16.7517969 L13.2889901,15.6328906 C13.3322147,15.3795313 13.2485643,15.1210156 13.0654818,14.9414844 L12.2565759,14.1488281 L13.3745841,13.9857031 C13.6277899,13.94875 13.8467115,13.7889063 13.9599039,13.5583594 L14.4598629,12.540625 L14.9592777,13.5582031 C15.0725479,13.7889063 15.2914694,13.94875 15.544753,13.9857031 L16.6628389,14.1488281 L15.8538553,14.9414844 Z" id="Shape"></path>
                <path d="M14.4600184,5.10242187 C10.5572128,5.10242187 8.19214461,7.55421875 8.14161229,7.58507812 C7.82419156,7.875625 7.8013354,8.36976562 8.09045803,8.68867187 C8.37965839,9.00765625 8.87129902,9.030625 9.18871975,8.74007812 C10.7439491,7.32226562 12.5952979,6.66492187 14.4600184,6.66492187 C18.7467919,6.66492187 22.2342218,10.1696094 22.2342218,14.4774219 C22.2342218,18.7711719 18.7679377,22.2899219 14.4600184,22.2899219 C10.0630067,22.2899219 6.47785501,18.5939062 6.69553271,14.0828906 C6.70276271,13.9496094 6.71286918,13.8157812 6.72561887,13.685 C6.76759957,13.255625 6.45515434,12.8732812 6.02788411,12.8311719 C5.59890357,12.7885156 5.22006664,13.1029688 5.17816368,13.5323438 C5.16323721,13.6857031 5.15126494,13.8425781 5.14271331,14.0028125 C4.88134459,19.4065625 9.17324908,23.8523437 14.4600184,23.8523437 C19.6422246,23.8523437 23.7890625,19.6119531 23.7890625,14.4773437 C23.7890625,9.30796875 19.6040533,5.10242187 14.4600184,5.10242187 Z" id="Shape"></path>
                <path d="M28.7033697,13.9986719 L26.5589334,11.2198437 L27.0338595,7.73578125 C27.0820596,7.3825 26.8860719,7.04125 26.5576118,6.90648437 L23.3171684,5.57664063 L21.9946209,2.32117188 C21.8605159,1.99101563 21.5209386,1.79382813 21.1693892,1.84242188 L17.7024054,2.3196875 L14.9364993,0.163984375 C14.6560838,-0.054609375 14.2640307,-0.054609375 13.9835375,0.163984375 L11.2176314,2.31976563 L7.75064759,1.8425 C7.3992536,1.79421875 7.05952091,1.99101563 6.9254159,2.32125 L5.60286841,5.57671875 L2.36242494,6.9065625 C2.03396484,7.04140625 1.83797718,7.38257813 1.88617724,7.73585938 L2.36110332,11.2199219 L0.21666705,13.99875 C-0.000699678309,14.2803906 -0.000699678309,14.674375 0.21666705,14.9561719 L2.36118107,17.7357812 L1.88625498,21.2199219 C1.83805492,21.5732813 2.03412033,21.9145312 2.36265816,22.0492969 L5.60294616,23.3783594 L6.9254159,26.6345312 C7.05959865,26.9647656 7.39940908,27.1619531 7.75072534,27.1132812 L9.01807598,26.9385938 L9.01807598,39.21875 C9.01807598,39.5347656 9.20753332,39.8196094 9.49797756,39.9405469 C9.78857728,40.0613281 10.1229458,39.9946094 10.3452102,39.7711719 L14.4600184,35.6360938 L18.5748265,39.7711719 C18.7972465,39.9946875 19.1315372,40.0613281 19.4220592,39.9405469 C19.7125034,39.8196094 19.9019608,39.5347656 19.9019608,39.21875 L19.9019608,26.9385938 L21.1693892,27.113125 C21.5210164,27.1617188 21.8606713,26.9646094 21.9946986,26.634375 L23.3171684,23.3782031 L26.5574563,22.0491406 C26.8859942,21.914375 27.0820596,21.573125 27.0338595,21.2197656 L26.5589334,17.735625 L28.7034475,14.9560156 C28.9208142,14.6742969 28.9208142,14.2803906 28.7033697,13.9986719 Z M18.3471201,37.3326562 L15.0097323,33.9788281 C14.7060719,33.67375 14.2139648,33.67375 13.9102267,33.9788281 L10.5729167,37.3326562 L10.5729167,26.7245313 L11.2176314,26.6357813 L13.9836929,28.7908594 C14.1238618,28.9000781 14.2919401,28.9546875 14.4600184,28.9546875 C14.6280967,28.9546875 14.7961749,28.9000781 14.9363438,28.7908594 L17.7024054,26.6357813 L18.3471201,26.7245313 L18.3471201,37.3326562 Z M25.1298794,17.0378125 C25.001916,17.2038281 24.9457085,17.4145312 24.9740843,17.6225781 L25.4115388,20.8315625 L22.4270221,22.0557031 C22.2335999,22.1350781 22.0799816,22.289375 22.0010735,22.48375 L20.7830113,25.4828906 L19.4281231,25.2963281 C19.3069233,25.2446094 19.1725073,25.2230469 19.0276739,25.2411719 L17.5897572,25.0432031 C17.382186,25.0148437 17.1729822,25.0711719 17.0079358,25.1998437 L14.4600184,27.1849219 L11.9121787,25.1997656 C11.7483762,25.0721094 11.5395611,25.0146094 11.3303573,25.043125 L8.13710325,25.4827344 L6.91904105,22.4835937 C6.84005515,22.2891406 6.68651463,22.1348437 6.49309245,22.0555469 L3.50857575,20.8314062 L3.94603018,17.6224219 C3.97440602,17.414375 3.91827627,17.2036719 3.79023514,17.0376562 L1.81496553,14.4774219 L3.79007966,11.9178906 C3.91812079,11.751875 3.97432828,11.5411719 3.94595244,11.3330469 L3.50849801,8.12390625 L6.49317019,6.8990625 C6.68651463,6.8196875 6.83997741,6.66546875 6.91896331,6.47109375 L8.13710325,3.47273438 L11.3303573,3.91234375 C11.5378508,3.94070313 11.7471324,3.884375 11.9123342,3.75570313 L14.4600184,1.77007813 L17.0077026,3.75578125 C17.1728267,3.88445313 17.3824969,3.94085938 17.5896795,3.91242188 L20.7829335,3.4728125 L22.0010735,6.47117187 C22.0800594,6.66554687 22.2334444,6.81976562 22.4268666,6.89914062 L25.4115388,8.12398437 L24.9740843,11.333125 C24.9457085,11.54125 25.0018382,11.7519531 25.1299571,11.9179687 L27.105149,14.4775781 L25.1298794,17.0378125 Z" id="Shape"></path>
            </g>
        </g>
    </g>
</svg>