<?xml version="1.0" encoding="UTF-8"?>
<svg width="36px" height="40px" viewBox="0 0 36 40" version="1.1" xmlns="http://www.w3.org/2000/svg" xmlns:xlink="http://www.w3.org/1999/xlink">
    <!-- Generator: Sketch 52.4 (67378) - http://www.bohemiancoding.com/sketch -->
    <title>support</title>
    <desc>Created with Sketch.</desc>
    <g id="Set-1" stroke="none" stroke-width="1" fill="none" fill-rule="evenodd">
        <g id="Icons" transform="translate(-56.000000, -56.000000)" fill="#483065" fill-rule="nonzero">
            <g id="support" transform="translate(56.000000, 56.000000)">
                <path d="M26.5714286,30.8571429 C26.0982857,30.8571429 25.7142857,31.2411429 25.7142857,31.7142857 C25.7142857,32.1874286 26.0982857,32.5714286 26.5714286,32.5714286 C27.0445714,32.5714286 27.4285714,32.1874286 27.4285714,31.7142857 C27.4285714,31.2411429 27.0445714,30.8571429 26.5714286,30.8571429 Z" id="Shape"></path>
                <path d="M28.5356348,28.4111719 L24.8158957,27.1736719 L23.4805304,24.5075 C24.6835565,23.2851562 25.5188348,21.6678125 25.8004957,19.9808594 L25.9670348,18.984375 L27.3913043,18.984375 C28.6858957,18.984375 29.7391304,17.9329688 29.7391304,16.640625 L29.7391304,11.71875 C29.7391304,5.25703125 24.4729565,0 18,0 C11.5104522,0 6.26086957,5.24195312 6.26086957,11.71875 L6.26086957,16.640625 C6.26086957,17.6590625 6.9152087,18.5275 7.82608696,18.85 L7.82608696,19.765625 C7.82608696,21.0579688 8.87932174,22.109375 10.173913,22.109375 L10.8612,22.109375 C11.2004609,22.8450781 11.6395826,23.5264844 12.1739478,24.1385937 C12.2847652,24.2657812 12.4003565,24.3890625 12.5187652,24.5089844 L11.1841043,27.1736719 L7.46428696,28.41125 C3.1392,29.8509375 0,34.3961719 0,39.21875 C0,39.6502344 0.350373913,40 0.782608696,40 L35.2173913,40 C35.6495478,40 36,39.6502344 36,39.21875 C36,34.3961719 32.8608783,29.8509375 28.5356348,28.4111719 Z M28.173913,16.640625 C28.173913,17.0714063 27.8228348,17.421875 27.3913043,17.421875 L26.196887,17.421875 C26.3958261,15.8835938 26.5284,14.2466406 26.5816957,12.634375 C26.5832609,12.5889063 26.584513,12.5446875 26.5859217,12.5 L28.173913,12.5 L28.173913,16.640625 Z M8.60869565,17.421875 C8.17716522,17.421875 7.82608696,17.0714063 7.82608696,16.640625 L7.82608696,12.5 L9.41462609,12.5 C9.4172087,12.5814844 9.41994783,12.6633594 9.423,12.7457812 C9.42307826,12.7485937 9.42323478,12.7513281 9.42331304,12.7541406 C9.42331304,12.754375 9.42331304,12.7546094 9.42331304,12.7548437 C9.47809565,14.3229687 9.60894783,15.9174219 9.80334783,17.4217969 L8.60869565,17.4217969 L8.60869565,17.421875 Z M10.173913,20.546875 C9.74238261,20.546875 9.39130435,20.1964063 9.39130435,19.765625 L9.39130435,18.984375 L10.032887,18.984375 L10.1994261,19.9811719 C10.2312,20.170625 10.2702522,20.359375 10.3154087,20.546875 L10.173913,20.546875 Z M9.39263478,10.9375 L7.85582609,10.9375 C8.25221739,5.70148437 12.6295043,1.5625 18,1.5625 C23.3466261,1.5625 27.7431652,5.7009375 28.1440957,10.9375 L26.6074435,10.9375 C26.5510957,6.62289063 23.0314696,3.125 18.700513,3.125 L17.2996435,3.125 C12.9687652,3.125 9.44890435,6.62289063 9.39263478,10.9375 Z M17.2995652,4.6875 L18.7004348,4.6875 C22.2072261,4.6875 25.045513,7.55085937 25.0434783,11.0476562 C25.0434783,11.2935156 25.0415217,11.5075781 25.0373739,11.7023437 C25.0373739,11.7048437 25.0372957,11.7074219 25.0372957,11.71 L24.0584087,11.5703906 C21.3991043,11.1913281 18.8881826,9.93804687 16.9881652,8.04132812 C16.8413478,7.89484375 16.6423304,7.8125 16.4347826,7.8125 C14.3330087,7.8125 12.3210783,8.7684375 10.991113,10.3834375 C11.3188696,7.20226562 14.0128435,4.6875 17.2995652,4.6875 Z M11.937913,20.546875 C11.5461391,19.2458594 11.0978609,15.4177344 10.9987826,12.9646094 L12.0520957,11.5625781 C13.0194783,10.2753906 14.524513,9.475625 16.1254957,9.38382813 C18.2320435,11.3850781 20.9572435,12.7066406 23.837087,13.1171094 L24.9892435,13.2814844 C24.9122348,14.913125 24.7548522,16.5504688 24.5293826,18.0563281 C24.5293043,18.0567969 24.5292261,18.0573438 24.5291478,18.0578906 C24.4574609,18.5420313 24.4009565,18.8535938 24.2566435,19.7238281 C23.8421739,22.2054688 21.9872348,24.4496094 19.5385304,25.0607813 C18.5307652,25.3119531 17.4690783,25.311875 16.4618609,25.0607813 C14.9328783,24.6792188 13.530913,23.623125 12.6261391,22.109375 L14.2215652,22.109375 C14.5446261,23.0186719 15.4144957,23.671875 16.4347826,23.671875 L18,23.671875 C19.2971739,23.671875 20.3478261,22.623125 20.3478261,21.328125 C20.3478261,20.0357812 19.2945913,18.984375 18,18.984375 L16.4347826,18.984375 C15.3918,18.984375 14.5347652,19.656875 14.2202348,20.546875 L11.937913,20.546875 Z M16.3689652,26.641875 C16.9057565,26.7547656 17.4530348,26.8125 18,26.8125 C18.4281652,26.8125 18.8564087,26.7767188 19.2798,26.7073438 L17.8969304,28.1672656 L16.3689652,26.641875 Z M16.821,29.3030469 L14.3387217,31.9235156 C13.6553478,30.6177344 13.0681565,29.25875 12.5865391,27.8675 L13.5187043,26.0064062 L16.821,29.3030469 Z M22.3486435,25.7417188 L23.4133043,27.8674219 C22.9309043,29.2610156 22.3435565,30.6204688 21.660887,31.9246875 L19.004087,29.2725 L22.3486435,25.7417188 Z M15.6521739,21.328125 C15.6521739,20.8967969 16.0026261,20.546875 16.4347826,20.546875 L18,20.546875 C18.4315304,20.546875 18.7826087,20.8973438 18.7826087,21.328125 C18.7826087,21.7595313 18.4320783,22.109375 18,22.109375 L16.4347826,22.109375 C16.0032522,22.109375 15.6521739,21.7589063 15.6521739,21.328125 Z M1.59652174,38.4375 C1.90666957,34.5672656 4.48685217,31.0494531 7.95928696,29.8935156 L11.2536,28.7975781 C11.8571478,30.4635937 12.6048522,32.0828906 13.4811391,33.6210156 C13.4826261,33.6236719 13.4840348,33.6263281 13.4855217,33.6289062 C13.4855217,33.6289844 13.4856,33.6289844 13.4856,33.6290625 C14.1258522,34.7532031 14.8464783,35.8517187 15.6277565,36.8946094 L16.5905217,38.4375 L1.59652174,38.4375 Z M18,37.7410938 L16.9386261,36.0400781 C16.9267304,36.0210156 16.9140522,36.0025 16.9005913,35.9845313 C16.2668348,35.140625 15.6756522,34.2580469 15.1372174,33.3546875 L17.9282348,30.4082813 L20.8691217,33.3440625 C20.327087,34.2539844 19.7338696,35.1402344 19.0995652,35.984375 C19.0612174,36.0353906 19.1156087,35.955 18,37.7410938 Z M19.4094783,38.4375 L20.3721652,36.8946875 C21.156887,35.8478125 21.8826783,34.7404687 22.5293478,33.603125 C22.5332609,33.59625 22.5369391,33.5892188 22.5408522,33.5823437 C22.5413217,33.5814844 22.5417913,33.5807031 22.5422609,33.5798438 C23.4074348,32.0564063 24.147313,30.4511719 24.7464,28.7975781 L28.0406348,29.8935156 C31.5131478,31.0494531 34.0933304,34.5672656 34.4034783,38.4375 L19.4094783,38.4375 Z" id="Shape"></path>
                <path d="M31.9203993,35.4345207 C31.4163961,34.3835622 30.6781516,33.4499007 29.7854557,32.7344915 C29.4552857,32.4698074 28.9818258,32.5341518 28.727901,32.8781076 C28.4739009,33.2220633 28.5356663,33.7152918 28.865761,33.9798974 C29.5787412,34.5512976 30.1683413,35.2971113 30.5709858,36.136731 C30.7574889,36.5255472 31.2107374,36.6820478 31.5826877,36.4884647 C31.9552414,36.2945673 32.1064499,35.8227083 31.9203993,35.4345207 Z" id="Shape"></path>
            </g>
        </g>
    </g>
</svg>