<?xml version="1.0" encoding="UTF-8"?>
<svg width="40px" height="40px" viewBox="0 0 40 40" version="1.1" xmlns="http://www.w3.org/2000/svg" xmlns:xlink="http://www.w3.org/1999/xlink">
    <!-- Generator: Sketch 52.4 (67378) - http://www.bohemiancoding.com/sketch -->
    <title>017-tools</title>
    <desc>Created with Sketch.</desc>
    <g id="Set-1" stroke="none" stroke-width="1" fill="none" fill-rule="evenodd">
        <g id="Icons" transform="translate(-188.000000, -56.000000)" fill="#483065" fill-rule="nonzero">
            <g id="017-tools" transform="translate(188.000000, 56.000000)">
                <path d="M27.0830288,12.1753168 C26.6526559,12.1753168 26.3033017,12.5237573 26.3033017,12.9547393 C26.3033017,13.3854167 26.6526559,13.7344664 27.0830288,13.7344664 C27.5143153,13.7344664 27.8627559,13.3854167 27.8627559,12.9547393 C27.8627559,12.5237573 27.5143153,12.1753168 27.0830288,12.1753168 Z" id="Shape"></path>
                <path d="M12.9157529,26.342288 C12.4844664,26.342288 12.1360258,26.6916423 12.1360258,27.1220151 C12.1360258,27.5533017 12.4844664,27.9017422 12.9157529,27.9017422 C13.3461257,27.9017422 13.69548,27.5533017 13.69548,27.1220151 C13.69548,26.6916423 13.3461257,26.342288 12.9157529,26.342288 Z" id="Shape"></path>
                <path d="M38.9909235,4.87481723 C38.7277656,4.81359649 38.4512062,4.89309209 38.2611477,5.08497809 L35.0286306,8.34307992 L33.478923,8.34307992 L31.7729654,6.57559696 L31.7729654,5.00426417 L34.9591861,1.77052873 C35.1477217,1.57925193 35.2244761,1.30421536 35.162037,1.04258043 C35.0999025,0.781249981 34.9074074,0.57048 34.6527778,0.484588226 C33.8523392,0.214729513 33.0147417,0.0779727096 32.1628289,0.0779727096 C29.6232335,0.0779727096 27.3160331,1.26218324 25.8327242,3.32693715 C24.4444444,5.25980749 24.0165083,7.62853318 24.6296296,9.89552873 L18.8861477,15.6390107 L9.31743423,6.04836741 L9.31743423,4.16605754 C9.31743423,3.8922393 9.17367205,3.63821879 8.93884016,3.49750246 L3.42562136,0.189144717 C3.11860382,0.00487329435 2.72599906,0.0533016764 2.47319688,0.306408421 L0.268031189,2.51126947 C0.0152290058,2.76437622 -0.0331992982,3.15698097 0.150767563,3.46399852 L3.4585161,8.97721731 C3.59923244,9.2120492 3.8529483,9.35550682 4.12676655,9.35581138 L6.00846737,9.35642058 L15.5780945,18.9470639 L9.85654238,24.668616 C7.58954682,24.0557992 5.21960281,24.4843446 3.28581871,25.873538 C1.22228312,27.3559333 0.0389863548,29.6625244 0.0389863548,32.2021199 C0.0389863548,33.053728 0.175743158,33.8916301 0.445601871,34.6917641 C0.531798207,34.9479166 0.744700273,35.1413255 1.00785817,35.2022417 C1.2713207,35.2634625 1.54757552,35.1839669 1.73793856,34.9920809 L4.97015111,31.7342837 L6.5283869,31.7342837 L8.30378901,33.5096857 L8.30378901,35.0679216 L5.04599173,38.300134 C4.85410573,38.4904971 4.77461014,38.766752 4.83583088,39.0302144 C4.89674706,39.2933723 5.09015595,39.5062744 5.34630846,39.5924708 C6.1464425,39.8623294 6.98434456,39.9990862 7.83595275,39.9990862 C10.3755482,39.9990862 12.6818348,38.8154849 14.1645346,36.7519493 C15.553728,34.8181652 15.9822734,32.4485258 15.3694566,30.1815302 L19.9646686,25.5863182 L21.0173002,26.7297149 L20.5342349,27.2124756 C20.229654,27.5170565 20.229654,28.0107821 20.5342349,28.315363 C20.8388158,28.6196394 21.3322369,28.6196394 21.6371223,28.315363 L22.0745005,27.8779849 L31.9508406,38.6059333 C31.9581506,38.6138523 31.9657651,38.6214668 31.9733796,38.6290814 C33.800865,40.4565668 36.7616959,40.4571759 38.590095,38.6287768 C40.4133163,36.8046418 40.4133163,33.836501 38.590095,32.012366 C38.5821759,32.0044469 38.5739523,31.9968324 38.5657286,31.9892179 L27.8210283,22.1317617 L28.2535331,21.6992568 C28.558114,21.3949805 28.558114,20.9012549 28.2535331,20.596674 C27.9489522,20.2920931 27.4555312,20.2920931 27.1506457,20.596674 L26.6709308,21.0766935 L25.525402,20.0252802 L30.1428484,15.4078338 C30.7992203,15.5832724 31.4766082,15.6722101 32.1628289,15.6722101 C36.4622929,15.6722101 39.9597953,12.174403 39.9597953,7.87524366 C39.9597953,7.02333092 39.8230385,6.18573341 39.5531798,5.38529481 C39.4669834,5.1291423 39.2540814,4.93573341 38.9909235,4.87481723 Z M6.88383283,8.02601123 C6.737634,7.87950784 6.53935189,7.80488546 6.33223688,7.80488546 L4.56871345,7.80427634 L1.80129138,3.18378409 L3.14540694,1.83966862 L7.75798004,4.60769981 L7.75798004,6.37122324 C7.75798004,6.57772904 7.83991228,6.77570667 7.98580655,6.9219055 L17.7835648,16.7418982 L16.6806774,17.844481 L6.88383283,8.02601123 Z M26.7172271,23.2355629 L37.4984771,33.1262183 C38.7027899,34.3433236 38.699135,36.3139619 37.4872076,37.5264986 C36.2725389,38.7411672 34.3061647,38.7448221 33.0866228,37.5371588 L23.177997,26.7741837 L26.7172271,23.2355629 Z M25.5671297,22.1801901 L22.1207968,25.6259138 L21.0681652,24.482517 L24.4216009,21.1287768 L25.5671297,22.1801901 Z M32.1628289,14.1127559 C31.4808724,14.1127559 30.8101852,14.0034113 30.1699562,13.787768 C29.8894371,13.6936526 29.5793738,13.7661428 29.3698221,13.9753899 C25.4608309,17.8843811 17.0379508,26.3069566 13.9364035,29.4088085 C13.7268519,29.6183602 13.654057,29.9284235 13.7487817,30.2092471 C14.3969298,32.1338938 14.0868664,34.186769 12.8977826,35.8421662 C11.7120492,37.4926901 9.86689817,38.439632 7.83595275,38.439632 C7.6078216,38.439632 7.38090885,38.4271442 7.15612819,38.4030823 L9.6326754,35.9457237 C9.78009263,35.7995248 9.8632432,35.600329 9.8632432,35.3923002 L9.8632432,33.1865254 C9.8632432,32.9797149 9.78100632,32.7814327 9.63480749,32.6352339 L7.40253411,30.4029605 C7.25633528,30.2567617 7.0580531,30.1745248 6.85124273,30.1745248 L4.64546784,30.1745248 C4.43743906,30.1745248 4.2382432,30.2576755 4.09173973,30.4050926 L1.63468569,32.8816398 C1.61031922,32.6568592 1.59813598,32.4299464 1.59813598,32.2018153 C1.59813598,30.1705653 2.54477341,28.3257188 4.19560187,27.1399853 C5.85069442,25.9509015 7.90387431,25.6405336 9.82882558,26.2889864 C10.1093446,26.383711 10.4194079,26.3109162 10.6289595,26.1013645 C10.6719055,26.0587232 26.0514133,10.6789108 26.0623782,10.6679459 C26.2719298,10.4583942 26.3444201,10.1486355 26.25,9.86781193 C25.6015473,7.94316522 25.9110015,5.8908991 27.0991715,4.23672031 C28.2858187,2.58467353 30.1312744,1.6374269 32.1625244,1.6374269 C32.3976608,1.6374269 32.6312744,1.6505239 32.8627559,1.67610869 L30.4376827,4.1374269 C30.2939205,4.28332117 30.2135112,4.47977583 30.2135112,4.68445419 L30.2135112,6.89022908 C30.2135112,7.0924708 30.2917885,7.28648881 30.4322003,7.43177388 L32.586501,9.66404725 C32.733309,9.8163377 32.9358553,9.90222955 33.147539,9.90222955 L35.3533138,9.90222955 C35.561038,9.90222955 35.7602339,9.81938355 35.9067373,9.67166175 L38.3637914,7.1954191 C38.3881579,7.42019977 38.4003411,7.64711259 38.4003411,7.87524366 C38.4003411,11.3145712 35.6021564,14.1127559 32.1628289,14.1127559 Z" id="Shape"></path>
                <path d="M24.3265716,14.6086136 L14.5693226,24.3658626 C14.2650463,24.6701389 14.2650463,25.1638645 14.5693226,25.4684454 C14.8739035,25.7730263 15.3676292,25.7730263 15.6722101,25.4684454 L25.429459,15.7111964 C25.7340399,15.4069201 25.7340399,14.9131945 25.429459,14.6086136 C25.1248781,14.3040327 24.6311525,14.3040327 24.3265716,14.6086136 Z" id="Shape"></path>
                <path d="M34.1797637,35.3216374 C34.4843446,35.6253046 34.9780702,35.6253046 35.2826511,35.3198099 C35.5866228,35.0149244 35.5857091,34.5211988 35.2808235,34.2172271 L28.2526194,27.2115619 C27.947734,26.9075902 27.4537037,26.9085039 27.1500366,27.2133894 C26.8457602,27.5185794 26.846674,28.0120005 27.1515595,28.3159722 L34.1797637,35.3216374 Z" id="Shape"></path>
            </g>
        </g>
    </g>
</svg>